<?xml version="1.0" encoding="utf-8" standalone="no"?>
<!DOCTYPE svg PUBLIC "-//W3C//DTD SVG 1.1//EN"
  "http://www.w3.org/Graphics/SVG/1.1/DTD/svg11.dtd">
<!-- Created with matplotlib (http://matplotlib.org/) -->
<svg height="241pt" version="1.1" viewBox="0 0 1464 241" width="1464pt" xmlns="http://www.w3.org/2000/svg" xmlns:xlink="http://www.w3.org/1999/xlink">
 <defs>
  <style type="text/css">
*{stroke-linecap:butt;stroke-linejoin:round;}
  </style>
 </defs>
 <g id="figure_1">
  <g id="patch_1">
   <path d="M 0 241.518125 
L 1464.5375 241.518125 
L 1464.5375 0 
L 0 0 
z
" style="fill:#ffffff;"/>
  </g>
  <g id="axes_1">
   <g id="matplotlib.axis_1"/>
   <g id="matplotlib.axis_2"/>
   <g id="patch_2">
    <path d="M 178.1 12.039062 
Q 178.1 12.039062 178.1 12.039062 
" style="fill:none;stroke:#000000;stroke-linecap:round;"/>
   </g>
   <g id="text_1">
    <g id="patch_3">
     <path d="M 154.120313 19.128125 
L 154.870313 19.878125 
L 155.644635 19.128125 
L 156.418958 18.378125 
L 157.193281 19.128125 
L 157.967604 19.878125 
L 158.741927 19.128125 
L 159.51625 18.378125 
L 160.290573 19.128125 
L 161.064896 19.878125 
L 161.839219 19.128125 
L 162.613542 18.378125 
L 163.387865 19.128125 
L 164.162188 19.878125 
L 164.93651 19.128125 
L 165.710833 18.378125 
L 166.485156 19.128125 
L 167.259479 19.878125 
L 168.033802 19.128125 
L 168.808125 18.378125 
L 169.582448 19.128125 
L 170.356771 19.878125 
L 171.131094 19.128125 
L 171.905417 18.378125 
L 172.67974 19.128125 
L 173.454063 19.878125 
L 174.228385 19.128125 
L 175.002708 18.378125 
L 175.777031 19.128125 
L 176.551354 19.878125 
L 177.325677 19.128125 
L 178.1 18.378125 
L 178.874323 19.128125 
L 179.648646 19.878125 
L 180.422969 19.128125 
L 181.197292 18.378125 
L 181.971615 19.128125 
L 182.745938 19.878125 
L 183.52026 19.128125 
L 184.294583 18.378125 
L 185.068906 19.128125 
L 185.843229 19.878125 
L 186.617552 19.128125 
L 187.391875 18.378125 
L 188.166198 19.128125 
L 188.940521 19.878125 
L 189.714844 19.128125 
L 190.489167 18.378125 
L 191.26349 19.128125 
L 192.037813 19.878125 
L 192.812135 19.128125 
L 193.586458 18.378125 
L 194.360781 19.128125 
L 195.135104 19.878125 
L 195.909427 19.128125 
L 196.68375 18.378125 
L 197.458073 19.128125 
L 198.232396 19.878125 
L 199.006719 19.128125 
L 199.781042 18.378125 
L 200.555365 19.128125 
L 201.329688 19.878125 
L 202.079688 19.128125 
L 202.829688 18.378125 
L 202.079688 17.585742 
L 201.329688 16.793359 
L 202.079688 16.000977 
L 202.829688 15.208594 
L 202.079688 14.416211 
L 201.329688 13.623828 
L 202.079688 12.831445 
L 202.829688 12.039063 
L 202.079688 11.24668 
L 201.329688 10.454297 
L 202.079688 9.661914 
L 202.829688 8.869531 
L 202.079688 8.077148 
L 201.329688 7.284766 
L 202.079688 6.492383 
L 202.829688 5.7 
L 202.079688 4.95 
L 201.329688 4.2 
L 200.555365 4.95 
L 199.781042 5.7 
L 199.006719 4.95 
L 198.232396 4.2 
L 197.458073 4.95 
L 196.68375 5.7 
L 195.909427 4.95 
L 195.135104 4.2 
L 194.360781 4.95 
L 193.586458 5.7 
L 192.812135 4.95 
L 192.037813 4.2 
L 191.26349 4.95 
L 190.489167 5.7 
L 189.714844 4.95 
L 188.940521 4.2 
L 188.166198 4.95 
L 187.391875 5.7 
L 186.617552 4.95 
L 185.843229 4.2 
L 185.068906 4.95 
L 184.294583 5.7 
L 183.52026 4.95 
L 182.745938 4.2 
L 181.971615 4.95 
L 181.197292 5.7 
L 180.422969 4.95 
L 179.648646 4.2 
L 178.874323 4.95 
L 178.1 5.7 
L 177.325677 4.95 
L 176.551354 4.2 
L 175.777031 4.95 
L 175.002708 5.7 
L 174.228385 4.95 
L 173.454063 4.2 
L 172.67974 4.95 
L 171.905417 5.7 
L 171.131094 4.95 
L 170.356771 4.2 
L 169.582448 4.95 
L 168.808125 5.7 
L 168.033802 4.95 
L 167.259479 4.2 
L 166.485156 4.95 
L 165.710833 5.7 
L 164.93651 4.95 
L 164.162188 4.2 
L 163.387865 4.95 
L 162.613542 5.7 
L 161.839219 4.95 
L 161.064896 4.2 
L 160.290573 4.95 
L 159.51625 5.7 
L 158.741927 4.95 
L 157.967604 4.2 
L 157.193281 4.95 
L 156.418958 5.7 
L 155.644635 4.95 
L 154.870313 4.2 
L 154.120313 4.95 
L 153.370313 5.7 
L 154.120313 6.492383 
L 154.870313 7.284766 
L 154.120313 8.077148 
L 153.370313 8.869531 
L 154.120313 9.661914 
L 154.870313 10.454297 
L 154.120313 11.24668 
L 153.370313 12.039063 
L 154.120313 12.831445 
L 154.870313 13.623828 
L 154.120313 14.416211 
L 153.370313 15.208594 
L 154.120313 16.000977 
L 154.870313 16.793359 
L 154.120313 17.585742 
L 153.370313 18.378125 
z
" style="fill:#cccccc;stroke:#000000;stroke-linejoin:miter;"/>
    </g>
    <!-- tearRate -->
    <defs>
     <path d="M 18.3125 70.21875 
L 18.3125 54.6875 
L 36.8125 54.6875 
L 36.8125 47.703125 
L 18.3125 47.703125 
L 18.3125 18.015625 
Q 18.3125 11.328125 20.140625 9.421875 
Q 21.96875 7.515625 27.59375 7.515625 
L 36.8125 7.515625 
L 36.8125 0 
L 27.59375 0 
Q 17.1875 0 13.234375 3.875 
Q 9.28125 7.765625 9.28125 18.015625 
L 9.28125 47.703125 
L 2.6875 47.703125 
L 2.6875 54.6875 
L 9.28125 54.6875 
L 9.28125 70.21875 
z
" id="DejaVuSans-74"/>
     <path d="M 56.203125 29.59375 
L 56.203125 25.203125 
L 14.890625 25.203125 
Q 15.484375 15.921875 20.484375 11.0625 
Q 25.484375 6.203125 34.421875 6.203125 
Q 39.59375 6.203125 44.453125 7.46875 
Q 49.3125 8.734375 54.109375 11.28125 
L 54.109375 2.78125 
Q 49.265625 0.734375 44.1875 -0.34375 
Q 39.109375 -1.421875 33.890625 -1.421875 
Q 20.796875 -1.421875 13.15625 6.1875 
Q 5.515625 13.8125 5.515625 26.8125 
Q 5.515625 40.234375 12.765625 48.109375 
Q 20.015625 56 32.328125 56 
Q 43.359375 56 49.78125 48.890625 
Q 56.203125 41.796875 56.203125 29.59375 
z
M 47.21875 32.234375 
Q 47.125 39.59375 43.09375 43.984375 
Q 39.0625 48.390625 32.421875 48.390625 
Q 24.90625 48.390625 20.390625 44.140625 
Q 15.875 39.890625 15.1875 32.171875 
z
" id="DejaVuSans-65"/>
     <path d="M 34.28125 27.484375 
Q 23.390625 27.484375 19.1875 25 
Q 14.984375 22.515625 14.984375 16.5 
Q 14.984375 11.71875 18.140625 8.90625 
Q 21.296875 6.109375 26.703125 6.109375 
Q 34.1875 6.109375 38.703125 11.40625 
Q 43.21875 16.703125 43.21875 25.484375 
L 43.21875 27.484375 
z
M 52.203125 31.203125 
L 52.203125 0 
L 43.21875 0 
L 43.21875 8.296875 
Q 40.140625 3.328125 35.546875 0.953125 
Q 30.953125 -1.421875 24.3125 -1.421875 
Q 15.921875 -1.421875 10.953125 3.296875 
Q 6 8.015625 6 15.921875 
Q 6 25.140625 12.171875 29.828125 
Q 18.359375 34.515625 30.609375 34.515625 
L 43.21875 34.515625 
L 43.21875 35.40625 
Q 43.21875 41.609375 39.140625 45 
Q 35.0625 48.390625 27.6875 48.390625 
Q 23 48.390625 18.546875 47.265625 
Q 14.109375 46.140625 10.015625 43.890625 
L 10.015625 52.203125 
Q 14.9375 54.109375 19.578125 55.046875 
Q 24.21875 56 28.609375 56 
Q 40.484375 56 46.34375 49.84375 
Q 52.203125 43.703125 52.203125 31.203125 
z
" id="DejaVuSans-61"/>
     <path d="M 41.109375 46.296875 
Q 39.59375 47.171875 37.8125 47.578125 
Q 36.03125 48 33.890625 48 
Q 26.265625 48 22.1875 43.046875 
Q 18.109375 38.09375 18.109375 28.8125 
L 18.109375 0 
L 9.078125 0 
L 9.078125 54.6875 
L 18.109375 54.6875 
L 18.109375 46.1875 
Q 20.953125 51.171875 25.484375 53.578125 
Q 30.03125 56 36.53125 56 
Q 37.453125 56 38.578125 55.875 
Q 39.703125 55.765625 41.0625 55.515625 
z
" id="DejaVuSans-72"/>
     <path d="M 44.390625 34.1875 
Q 47.5625 33.109375 50.5625 29.59375 
Q 53.5625 26.078125 56.59375 19.921875 
L 66.609375 0 
L 56 0 
L 46.6875 18.703125 
Q 43.0625 26.03125 39.671875 28.421875 
Q 36.28125 30.8125 30.421875 30.8125 
L 19.671875 30.8125 
L 19.671875 0 
L 9.8125 0 
L 9.8125 72.90625 
L 32.078125 72.90625 
Q 44.578125 72.90625 50.734375 67.671875 
Q 56.890625 62.453125 56.890625 51.90625 
Q 56.890625 45.015625 53.6875 40.46875 
Q 50.484375 35.9375 44.390625 34.1875 
z
M 19.671875 64.796875 
L 19.671875 38.921875 
L 32.078125 38.921875 
Q 39.203125 38.921875 42.84375 42.21875 
Q 46.484375 45.515625 46.484375 51.90625 
Q 46.484375 58.296875 42.84375 61.546875 
Q 39.203125 64.796875 32.078125 64.796875 
z
" id="DejaVuSans-52"/>
    </defs>
    <g transform="translate(156.370313 14.798438)scale(0.1 -0.1)">
     <use xlink:href="#DejaVuSans-74"/>
     <use x="39.208984" xlink:href="#DejaVuSans-65"/>
     <use x="100.732422" xlink:href="#DejaVuSans-61"/>
     <use x="162.011719" xlink:href="#DejaVuSans-72"/>
     <use x="203.125" xlink:href="#DejaVuSans-52"/>
     <use x="272.576172" xlink:href="#DejaVuSans-61"/>
     <use x="333.855469" xlink:href="#DejaVuSans-74"/>
     <use x="373.064453" xlink:href="#DejaVuSans-65"/>
    </g>
   </g>
   <g id="text_2">
    <!-- normal -->
    <defs>
     <path d="M 54.890625 33.015625 
L 54.890625 0 
L 45.90625 0 
L 45.90625 32.71875 
Q 45.90625 40.484375 42.875 44.328125 
Q 39.84375 48.1875 33.796875 48.1875 
Q 26.515625 48.1875 22.3125 43.546875 
Q 18.109375 38.921875 18.109375 30.90625 
L 18.109375 0 
L 9.078125 0 
L 9.078125 54.6875 
L 18.109375 54.6875 
L 18.109375 46.1875 
Q 21.34375 51.125 25.703125 53.5625 
Q 30.078125 56 35.796875 56 
Q 45.21875 56 50.046875 50.171875 
Q 54.890625 44.34375 54.890625 33.015625 
z
" id="DejaVuSans-6e"/>
     <path d="M 30.609375 48.390625 
Q 23.390625 48.390625 19.1875 42.75 
Q 14.984375 37.109375 14.984375 27.296875 
Q 14.984375 17.484375 19.15625 11.84375 
Q 23.34375 6.203125 30.609375 6.203125 
Q 37.796875 6.203125 41.984375 11.859375 
Q 46.1875 17.53125 46.1875 27.296875 
Q 46.1875 37.015625 41.984375 42.703125 
Q 37.796875 48.390625 30.609375 48.390625 
z
M 30.609375 56 
Q 42.328125 56 49.015625 48.375 
Q 55.71875 40.765625 55.71875 27.296875 
Q 55.71875 13.875 49.015625 6.21875 
Q 42.328125 -1.421875 30.609375 -1.421875 
Q 18.84375 -1.421875 12.171875 6.21875 
Q 5.515625 13.875 5.515625 27.296875 
Q 5.515625 40.765625 12.171875 48.375 
Q 18.84375 56 30.609375 56 
z
" id="DejaVuSans-6f"/>
     <path d="M 52 44.1875 
Q 55.375 50.25 60.0625 53.125 
Q 64.75 56 71.09375 56 
Q 79.640625 56 84.28125 50.015625 
Q 88.921875 44.046875 88.921875 33.015625 
L 88.921875 0 
L 79.890625 0 
L 79.890625 32.71875 
Q 79.890625 40.578125 77.09375 44.375 
Q 74.3125 48.1875 68.609375 48.1875 
Q 61.625 48.1875 57.5625 43.546875 
Q 53.515625 38.921875 53.515625 30.90625 
L 53.515625 0 
L 44.484375 0 
L 44.484375 32.71875 
Q 44.484375 40.625 41.703125 44.40625 
Q 38.921875 48.1875 33.109375 48.1875 
Q 26.21875 48.1875 22.15625 43.53125 
Q 18.109375 38.875 18.109375 30.90625 
L 18.109375 0 
L 9.078125 0 
L 9.078125 54.6875 
L 18.109375 54.6875 
L 18.109375 46.1875 
Q 21.1875 51.21875 25.484375 53.609375 
Q 29.78125 56 35.6875 56 
Q 41.65625 56 45.828125 52.96875 
Q 50 49.953125 52 44.1875 
z
" id="DejaVuSans-6d"/>
     <path d="M 9.421875 75.984375 
L 18.40625 75.984375 
L 18.40625 0 
L 9.421875 0 
z
" id="DejaVuSans-6c"/>
    </defs>
    <g transform="translate(178.1 39.219063)scale(0.1 -0.1)">
     <use xlink:href="#DejaVuSans-6e"/>
     <use x="63.378906" xlink:href="#DejaVuSans-6f"/>
     <use x="124.560547" xlink:href="#DejaVuSans-72"/>
     <use x="165.658203" xlink:href="#DejaVuSans-6d"/>
     <use x="263.070312" xlink:href="#DejaVuSans-61"/>
     <use x="324.349609" xlink:href="#DejaVuSans-6c"/>
    </g>
   </g>
   <g id="patch_4">
    <path d="M 178.1 54.744419 
Q 178.1 34.949783 178.1 14.037114 
" style="fill:none;stroke:#000000;stroke-linecap:round;"/>
    <path d="M 180.1 50.744419 
L 178.1 54.744419 
L 176.1 50.744419 
" style="fill:none;stroke:#000000;stroke-linecap:round;"/>
   </g>
   <g id="text_3">
    <g id="patch_5">
     <path d="M 149.625 73.488125 
L 150.375 74.238125 
L 151.145139 73.488125 
L 151.915278 72.738125 
L 152.685417 73.488125 
L 153.455556 74.238125 
L 154.225694 73.488125 
L 154.995833 72.738125 
L 155.765972 73.488125 
L 156.536111 74.238125 
L 157.30625 73.488125 
L 158.076389 72.738125 
L 158.846528 73.488125 
L 159.616667 74.238125 
L 160.386806 73.488125 
L 161.156944 72.738125 
L 161.927083 73.488125 
L 162.697222 74.238125 
L 163.467361 73.488125 
L 164.2375 72.738125 
L 165.007639 73.488125 
L 165.777778 74.238125 
L 166.547917 73.488125 
L 167.318056 72.738125 
L 168.088194 73.488125 
L 168.858333 74.238125 
L 169.628472 73.488125 
L 170.398611 72.738125 
L 171.16875 73.488125 
L 171.938889 74.238125 
L 172.709028 73.488125 
L 173.479167 72.738125 
L 174.249306 73.488125 
L 175.019444 74.238125 
L 175.789583 73.488125 
L 176.559722 72.738125 
L 177.329861 73.488125 
L 178.1 74.238125 
L 178.870139 73.488125 
L 179.640278 72.738125 
L 180.410417 73.488125 
L 181.180556 74.238125 
L 181.950694 73.488125 
L 182.720833 72.738125 
L 183.490972 73.488125 
L 184.261111 74.238125 
L 185.03125 73.488125 
L 185.801389 72.738125 
L 186.571528 73.488125 
L 187.341667 74.238125 
L 188.111806 73.488125 
L 188.881944 72.738125 
L 189.652083 73.488125 
L 190.422222 74.238125 
L 191.192361 73.488125 
L 191.9625 72.738125 
L 192.732639 73.488125 
L 193.502778 74.238125 
L 194.272917 73.488125 
L 195.043056 72.738125 
L 195.813194 73.488125 
L 196.583333 74.238125 
L 197.353472 73.488125 
L 198.123611 72.738125 
L 198.89375 73.488125 
L 199.663889 74.238125 
L 200.434028 73.488125 
L 201.204167 72.738125 
L 201.974306 73.488125 
L 202.744444 74.238125 
L 203.514583 73.488125 
L 204.284722 72.738125 
L 205.054861 73.488125 
L 205.825 74.238125 
L 206.575 73.488125 
L 207.325 72.738125 
L 206.575 71.945742 
L 205.825 71.153359 
L 206.575 70.360977 
L 207.325 69.568594 
L 206.575 68.776211 
L 205.825 67.983828 
L 206.575 67.191445 
L 207.325 66.399063 
L 206.575 65.60668 
L 205.825 64.814297 
L 206.575 64.021914 
L 207.325 63.229531 
L 206.575 62.437148 
L 205.825 61.644766 
L 206.575 60.852383 
L 207.325 60.06 
L 206.575 59.31 
L 205.825 58.56 
L 205.054861 59.31 
L 204.284722 60.06 
L 203.514583 59.31 
L 202.744444 58.56 
L 201.974306 59.31 
L 201.204167 60.06 
L 200.434028 59.31 
L 199.663889 58.56 
L 198.89375 59.31 
L 198.123611 60.06 
L 197.353472 59.31 
L 196.583333 58.56 
L 195.813194 59.31 
L 195.043056 60.06 
L 194.272917 59.31 
L 193.502778 58.56 
L 192.732639 59.31 
L 191.9625 60.06 
L 191.192361 59.31 
L 190.422222 58.56 
L 189.652083 59.31 
L 188.881944 60.06 
L 188.111806 59.31 
L 187.341667 58.56 
L 186.571528 59.31 
L 185.801389 60.06 
L 185.03125 59.31 
L 184.261111 58.56 
L 183.490972 59.31 
L 182.720833 60.06 
L 181.950694 59.31 
L 181.180556 58.56 
L 180.410417 59.31 
L 179.640278 60.06 
L 178.870139 59.31 
L 178.1 58.56 
L 177.329861 59.31 
L 176.559722 60.06 
L 175.789583 59.31 
L 175.019444 58.56 
L 174.249306 59.31 
L 173.479167 60.06 
L 172.709028 59.31 
L 171.938889 58.56 
L 171.16875 59.31 
L 170.398611 60.06 
L 169.628472 59.31 
L 168.858333 58.56 
L 168.088194 59.31 
L 167.318056 60.06 
L 166.547917 59.31 
L 165.777778 58.56 
L 165.007639 59.31 
L 164.2375 60.06 
L 163.467361 59.31 
L 162.697222 58.56 
L 161.927083 59.31 
L 161.156944 60.06 
L 160.386806 59.31 
L 159.616667 58.56 
L 158.846528 59.31 
L 158.076389 60.06 
L 157.30625 59.31 
L 156.536111 58.56 
L 155.765972 59.31 
L 154.995833 60.06 
L 154.225694 59.31 
L 153.455556 58.56 
L 152.685417 59.31 
L 151.915278 60.06 
L 151.145139 59.31 
L 150.375 58.56 
L 149.625 59.31 
L 148.875 60.06 
L 149.625 60.852383 
L 150.375 61.644766 
L 149.625 62.437148 
L 148.875 63.229531 
L 149.625 64.021914 
L 150.375 64.814297 
L 149.625 65.60668 
L 148.875 66.399063 
L 149.625 67.191445 
L 150.375 67.983828 
L 149.625 68.776211 
L 148.875 69.568594 
L 149.625 70.360977 
L 150.375 71.153359 
L 149.625 71.945742 
L 148.875 72.738125 
z
" style="fill:#cccccc;stroke:#000000;stroke-linejoin:miter;"/>
    </g>
    <!-- astigmatic -->
    <defs>
     <path d="M 44.28125 53.078125 
L 44.28125 44.578125 
Q 40.484375 46.53125 36.375 47.5 
Q 32.28125 48.484375 27.875 48.484375 
Q 21.1875 48.484375 17.84375 46.4375 
Q 14.5 44.390625 14.5 40.28125 
Q 14.5 37.15625 16.890625 35.375 
Q 19.28125 33.59375 26.515625 31.984375 
L 29.59375 31.296875 
Q 39.15625 29.25 43.1875 25.515625 
Q 47.21875 21.78125 47.21875 15.09375 
Q 47.21875 7.46875 41.1875 3.015625 
Q 35.15625 -1.421875 24.609375 -1.421875 
Q 20.21875 -1.421875 15.453125 -0.5625 
Q 10.6875 0.296875 5.421875 2 
L 5.421875 11.28125 
Q 10.40625 8.6875 15.234375 7.390625 
Q 20.0625 6.109375 24.8125 6.109375 
Q 31.15625 6.109375 34.5625 8.28125 
Q 37.984375 10.453125 37.984375 14.40625 
Q 37.984375 18.0625 35.515625 20.015625 
Q 33.0625 21.96875 24.703125 23.78125 
L 21.578125 24.515625 
Q 13.234375 26.265625 9.515625 29.90625 
Q 5.8125 33.546875 5.8125 39.890625 
Q 5.8125 47.609375 11.28125 51.796875 
Q 16.75 56 26.8125 56 
Q 31.78125 56 36.171875 55.265625 
Q 40.578125 54.546875 44.28125 53.078125 
z
" id="DejaVuSans-73"/>
     <path d="M 9.421875 54.6875 
L 18.40625 54.6875 
L 18.40625 0 
L 9.421875 0 
z
M 9.421875 75.984375 
L 18.40625 75.984375 
L 18.40625 64.59375 
L 9.421875 64.59375 
z
" id="DejaVuSans-69"/>
     <path d="M 45.40625 27.984375 
Q 45.40625 37.75 41.375 43.109375 
Q 37.359375 48.484375 30.078125 48.484375 
Q 22.859375 48.484375 18.828125 43.109375 
Q 14.796875 37.75 14.796875 27.984375 
Q 14.796875 18.265625 18.828125 12.890625 
Q 22.859375 7.515625 30.078125 7.515625 
Q 37.359375 7.515625 41.375 12.890625 
Q 45.40625 18.265625 45.40625 27.984375 
z
M 54.390625 6.78125 
Q 54.390625 -7.171875 48.1875 -13.984375 
Q 42 -20.796875 29.203125 -20.796875 
Q 24.46875 -20.796875 20.265625 -20.09375 
Q 16.0625 -19.390625 12.109375 -17.921875 
L 12.109375 -9.1875 
Q 16.0625 -11.328125 19.921875 -12.34375 
Q 23.78125 -13.375 27.78125 -13.375 
Q 36.625 -13.375 41.015625 -8.765625 
Q 45.40625 -4.15625 45.40625 5.171875 
L 45.40625 9.625 
Q 42.625 4.78125 38.28125 2.390625 
Q 33.9375 0 27.875 0 
Q 17.828125 0 11.671875 7.65625 
Q 5.515625 15.328125 5.515625 27.984375 
Q 5.515625 40.671875 11.671875 48.328125 
Q 17.828125 56 27.875 56 
Q 33.9375 56 38.28125 53.609375 
Q 42.625 51.21875 45.40625 46.390625 
L 45.40625 54.6875 
L 54.390625 54.6875 
z
" id="DejaVuSans-67"/>
     <path d="M 48.78125 52.59375 
L 48.78125 44.1875 
Q 44.96875 46.296875 41.140625 47.34375 
Q 37.3125 48.390625 33.40625 48.390625 
Q 24.65625 48.390625 19.8125 42.84375 
Q 14.984375 37.3125 14.984375 27.296875 
Q 14.984375 17.28125 19.8125 11.734375 
Q 24.65625 6.203125 33.40625 6.203125 
Q 37.3125 6.203125 41.140625 7.25 
Q 44.96875 8.296875 48.78125 10.40625 
L 48.78125 2.09375 
Q 45.015625 0.34375 40.984375 -0.53125 
Q 36.96875 -1.421875 32.421875 -1.421875 
Q 20.0625 -1.421875 12.78125 6.34375 
Q 5.515625 14.109375 5.515625 27.296875 
Q 5.515625 40.671875 12.859375 48.328125 
Q 20.21875 56 33.015625 56 
Q 37.15625 56 41.109375 55.140625 
Q 45.0625 54.296875 48.78125 52.59375 
z
" id="DejaVuSans-63"/>
    </defs>
    <g transform="translate(151.875 69.158438)scale(0.1 -0.1)">
     <use xlink:href="#DejaVuSans-61"/>
     <use x="61.279297" xlink:href="#DejaVuSans-73"/>
     <use x="113.378906" xlink:href="#DejaVuSans-74"/>
     <use x="152.587891" xlink:href="#DejaVuSans-69"/>
     <use x="180.371094" xlink:href="#DejaVuSans-67"/>
     <use x="243.847656" xlink:href="#DejaVuSans-6d"/>
     <use x="341.259766" xlink:href="#DejaVuSans-61"/>
     <use x="402.539062" xlink:href="#DejaVuSans-74"/>
     <use x="441.748047" xlink:href="#DejaVuSans-69"/>
     <use x="469.53125" xlink:href="#DejaVuSans-63"/>
    </g>
   </g>
   <g id="text_4">
    <!-- no -->
    <g transform="translate(219.95 93.579062)scale(0.1 -0.1)">
     <use xlink:href="#DejaVuSans-6e"/>
     <use x="63.378906" xlink:href="#DejaVuSans-6f"/>
    </g>
   </g>
   <g id="patch_6">
    <path d="M 247.449605 111.439021 
Q 214.081243 89.767526 179.775242 67.487069 
" style="fill:none;stroke:#000000;stroke-linecap:round;"/>
    <path d="M 245.18435 107.583037 
L 247.449605 111.439021 
L 243.005664 110.937635 
" style="fill:none;stroke:#000000;stroke-linecap:round;"/>
   </g>
   <g id="text_5">
    <g id="patch_7">
     <path d="M 250.235156 127.848125 
L 250.985156 128.598125 
L 251.757645 127.848125 
L 252.530134 127.098125 
L 253.302623 127.848125 
L 254.075112 128.598125 
L 254.8476 127.848125 
L 255.620089 127.098125 
L 256.392578 127.848125 
L 257.165067 128.598125 
L 257.937556 127.848125 
L 258.710045 127.098125 
L 259.482533 127.848125 
L 260.255022 128.598125 
L 261.027511 127.848125 
L 261.8 127.098125 
L 262.572489 127.848125 
L 263.344978 128.598125 
L 264.117467 127.848125 
L 264.889955 127.098125 
L 265.662444 127.848125 
L 266.434933 128.598125 
L 267.207422 127.848125 
L 267.979911 127.098125 
L 268.7524 127.848125 
L 269.524888 128.598125 
L 270.297377 127.848125 
L 271.069866 127.098125 
L 271.842355 127.848125 
L 272.614844 128.598125 
L 273.364844 127.848125 
L 274.114844 127.098125 
L 273.364844 126.305742 
L 272.614844 125.513359 
L 273.364844 124.720977 
L 274.114844 123.928594 
L 273.364844 123.136211 
L 272.614844 122.343828 
L 273.364844 121.551445 
L 274.114844 120.759062 
L 273.364844 119.96668 
L 272.614844 119.174297 
L 273.364844 118.381914 
L 274.114844 117.589531 
L 273.364844 116.797148 
L 272.614844 116.004766 
L 273.364844 115.212383 
L 274.114844 114.42 
L 273.364844 113.67 
L 272.614844 112.92 
L 271.842355 113.67 
L 271.069866 114.42 
L 270.297377 113.67 
L 269.524888 112.92 
L 268.7524 113.67 
L 267.979911 114.42 
L 267.207422 113.67 
L 266.434933 112.92 
L 265.662444 113.67 
L 264.889955 114.42 
L 264.117467 113.67 
L 263.344978 112.92 
L 262.572489 113.67 
L 261.8 114.42 
L 261.027511 113.67 
L 260.255022 112.92 
L 259.482533 113.67 
L 258.710045 114.42 
L 257.937556 113.67 
L 257.165067 112.92 
L 256.392578 113.67 
L 255.620089 114.42 
L 254.8476 113.67 
L 254.075112 112.92 
L 253.302623 113.67 
L 252.530134 114.42 
L 251.757645 113.67 
L 250.985156 112.92 
L 250.235156 113.67 
L 249.485156 114.42 
L 250.235156 115.212383 
L 250.985156 116.004766 
L 250.235156 116.797148 
L 249.485156 117.589531 
L 250.235156 118.381914 
L 250.985156 119.174297 
L 250.235156 119.96668 
L 249.485156 120.759062 
L 250.235156 121.551445 
L 250.985156 122.343828 
L 250.235156 123.136211 
L 249.485156 123.928594 
L 250.235156 124.720977 
L 250.985156 125.513359 
L 250.235156 126.305742 
L 249.485156 127.098125 
z
" style="fill:#cccccc;stroke:#000000;stroke-linejoin:miter;"/>
    </g>
    <!-- age -->
    <g transform="translate(252.485156 123.518438)scale(0.1 -0.1)">
     <use xlink:href="#DejaVuSans-61"/>
     <use x="61.279297" xlink:href="#DejaVuSans-67"/>
     <use x="124.755859" xlink:href="#DejaVuSans-65"/>
    </g>
   </g>
   <g id="patch_8">
    <path d="M 109.529286 170.206112 
Q 184.180702 145.964469 259.89549 121.377516 
" style="fill:none;stroke:#000000;stroke-linecap:round;"/>
    <path d="M 113.951432 170.872911 
L 109.529286 170.206112 
L 112.716013 167.068474 
" style="fill:none;stroke:#000000;stroke-linecap:round;"/>
   </g>
   <g id="text_6">
    <g id="patch_9">
     <path d="M 83.516406 181.458125 
C 85.016406 182.958125 103.783594 182.958125 105.283594 181.458125 
C 106.783594 179.958125 106.783594 170.28 105.283594 168.78 
C 103.783594 167.28 85.016406 167.28 83.516406 168.78 
C 82.016406 170.28 82.016406 179.958125 83.516406 181.458125 
z
" style="fill:#cccccc;stroke:#000000;stroke-linejoin:miter;"/>
    </g>
    <!-- soft -->
    <defs>
     <path d="M 37.109375 75.984375 
L 37.109375 68.5 
L 28.515625 68.5 
Q 23.6875 68.5 21.796875 66.546875 
Q 19.921875 64.59375 19.921875 59.515625 
L 19.921875 54.6875 
L 34.71875 54.6875 
L 34.71875 47.703125 
L 19.921875 47.703125 
L 19.921875 0 
L 10.890625 0 
L 10.890625 47.703125 
L 2.296875 47.703125 
L 2.296875 54.6875 
L 10.890625 54.6875 
L 10.890625 58.5 
Q 10.890625 67.625 15.140625 71.796875 
Q 19.390625 75.984375 28.609375 75.984375 
z
" id="DejaVuSans-66"/>
    </defs>
    <g transform="translate(85.016406 177.878437)scale(0.1 -0.1)">
     <use xlink:href="#DejaVuSans-73"/>
     <use x="52.099609" xlink:href="#DejaVuSans-6f"/>
     <use x="113.28125" xlink:href="#DejaVuSans-66"/>
     <use x="148.470703" xlink:href="#DejaVuSans-74"/>
    </g>
   </g>
   <g id="text_7">
    <!-- pre -->
    <defs>
     <path d="M 18.109375 8.203125 
L 18.109375 -20.796875 
L 9.078125 -20.796875 
L 9.078125 54.6875 
L 18.109375 54.6875 
L 18.109375 46.390625 
Q 20.953125 51.265625 25.265625 53.625 
Q 29.59375 56 35.59375 56 
Q 45.5625 56 51.78125 48.09375 
Q 58.015625 40.1875 58.015625 27.296875 
Q 58.015625 14.40625 51.78125 6.484375 
Q 45.5625 -1.421875 35.59375 -1.421875 
Q 29.59375 -1.421875 25.265625 0.953125 
Q 20.953125 3.328125 18.109375 8.203125 
z
M 48.6875 27.296875 
Q 48.6875 37.203125 44.609375 42.84375 
Q 40.53125 48.484375 33.40625 48.484375 
Q 26.265625 48.484375 22.1875 42.84375 
Q 18.109375 37.203125 18.109375 27.296875 
Q 18.109375 17.390625 22.1875 11.75 
Q 26.265625 6.109375 33.40625 6.109375 
Q 40.53125 6.109375 44.609375 11.75 
Q 48.6875 17.390625 48.6875 27.296875 
z
" id="DejaVuSans-70"/>
    </defs>
    <g transform="translate(178.1 147.939063)scale(0.1 -0.1)">
     <use xlink:href="#DejaVuSans-70"/>
     <use x="63.476562" xlink:href="#DejaVuSans-72"/>
     <use x="104.558594" xlink:href="#DejaVuSans-65"/>
    </g>
   </g>
   <g id="text_8">
    <!-- presbyopic -->
    <defs>
     <path d="M 48.6875 27.296875 
Q 48.6875 37.203125 44.609375 42.84375 
Q 40.53125 48.484375 33.40625 48.484375 
Q 26.265625 48.484375 22.1875 42.84375 
Q 18.109375 37.203125 18.109375 27.296875 
Q 18.109375 17.390625 22.1875 11.75 
Q 26.265625 6.109375 33.40625 6.109375 
Q 40.53125 6.109375 44.609375 11.75 
Q 48.6875 17.390625 48.6875 27.296875 
z
M 18.109375 46.390625 
Q 20.953125 51.265625 25.265625 53.625 
Q 29.59375 56 35.59375 56 
Q 45.5625 56 51.78125 48.09375 
Q 58.015625 40.1875 58.015625 27.296875 
Q 58.015625 14.40625 51.78125 6.484375 
Q 45.5625 -1.421875 35.59375 -1.421875 
Q 29.59375 -1.421875 25.265625 0.953125 
Q 20.953125 3.328125 18.109375 8.203125 
L 18.109375 0 
L 9.078125 0 
L 9.078125 75.984375 
L 18.109375 75.984375 
z
" id="DejaVuSans-62"/>
     <path d="M 32.171875 -5.078125 
Q 28.375 -14.84375 24.75 -17.8125 
Q 21.140625 -20.796875 15.09375 -20.796875 
L 7.90625 -20.796875 
L 7.90625 -13.28125 
L 13.1875 -13.28125 
Q 16.890625 -13.28125 18.9375 -11.515625 
Q 21 -9.765625 23.484375 -3.21875 
L 25.09375 0.875 
L 2.984375 54.6875 
L 12.5 54.6875 
L 29.59375 11.921875 
L 46.6875 54.6875 
L 56.203125 54.6875 
z
" id="DejaVuSans-79"/>
    </defs>
    <g transform="translate(303.65 147.939063)scale(0.1 -0.1)">
     <use xlink:href="#DejaVuSans-70"/>
     <use x="63.476562" xlink:href="#DejaVuSans-72"/>
     <use x="104.558594" xlink:href="#DejaVuSans-65"/>
     <use x="166.082031" xlink:href="#DejaVuSans-73"/>
     <use x="218.181641" xlink:href="#DejaVuSans-62"/>
     <use x="281.658203" xlink:href="#DejaVuSans-79"/>
     <use x="340.837891" xlink:href="#DejaVuSans-6f"/>
     <use x="402.019531" xlink:href="#DejaVuSans-70"/>
     <use x="465.496094" xlink:href="#DejaVuSans-69"/>
     <use x="493.279297" xlink:href="#DejaVuSans-63"/>
    </g>
   </g>
   <g id="patch_10">
    <path d="M 330.508481 165.382635 
Q 297.461542 143.919892 263.476965 121.848188 
" style="fill:none;stroke:#000000;stroke-linecap:round;"/>
    <path d="M 328.243225 161.526651 
L 330.508481 165.382635 
L 326.06454 164.881249 
" style="fill:none;stroke:#000000;stroke-linecap:round;"/>
   </g>
   <g id="text_9">
    <g id="patch_11">
     <path d="M 321.0125 182.208125 
L 321.7625 182.958125 
L 322.504297 182.208125 
L 323.246094 181.458125 
L 323.987891 182.208125 
L 324.729688 182.958125 
L 325.471484 182.208125 
L 326.213281 181.458125 
L 326.955078 182.208125 
L 327.696875 182.958125 
L 328.438672 182.208125 
L 329.180469 181.458125 
L 329.922266 182.208125 
L 330.664062 182.958125 
L 331.405859 182.208125 
L 332.147656 181.458125 
L 332.889453 182.208125 
L 333.63125 182.958125 
L 334.373047 182.208125 
L 335.114844 181.458125 
L 335.856641 182.208125 
L 336.598437 182.958125 
L 337.340234 182.208125 
L 338.082031 181.458125 
L 338.823828 182.208125 
L 339.565625 182.958125 
L 340.307422 182.208125 
L 341.049219 181.458125 
L 341.791016 182.208125 
L 342.532812 182.958125 
L 343.274609 182.208125 
L 344.016406 181.458125 
L 344.758203 182.208125 
L 345.5 182.958125 
L 346.241797 182.208125 
L 346.983594 181.458125 
L 347.725391 182.208125 
L 348.467187 182.958125 
L 349.208984 182.208125 
L 349.950781 181.458125 
L 350.692578 182.208125 
L 351.434375 182.958125 
L 352.176172 182.208125 
L 352.917969 181.458125 
L 353.659766 182.208125 
L 354.401563 182.958125 
L 355.143359 182.208125 
L 355.885156 181.458125 
L 356.626953 182.208125 
L 357.36875 182.958125 
L 358.110547 182.208125 
L 358.852344 181.458125 
L 359.594141 182.208125 
L 360.335938 182.958125 
L 361.077734 182.208125 
L 361.819531 181.458125 
L 362.561328 182.208125 
L 363.303125 182.958125 
L 364.044922 182.208125 
L 364.786719 181.458125 
L 365.528516 182.208125 
L 366.270312 182.958125 
L 367.012109 182.208125 
L 367.753906 181.458125 
L 368.495703 182.208125 
L 369.2375 182.958125 
L 369.9875 182.208125 
L 370.7375 181.458125 
L 369.9875 180.665742 
L 369.2375 179.873359 
L 369.9875 179.080977 
L 370.7375 178.288594 
L 369.9875 177.496211 
L 369.2375 176.703828 
L 369.9875 175.911445 
L 370.7375 175.119062 
L 369.9875 174.32668 
L 369.2375 173.534297 
L 369.9875 172.741914 
L 370.7375 171.949531 
L 369.9875 171.157148 
L 369.2375 170.364766 
L 369.9875 169.572383 
L 370.7375 168.78 
L 369.9875 168.03 
L 369.2375 167.28 
L 368.495703 168.03 
L 367.753906 168.78 
L 367.012109 168.03 
L 366.270312 167.28 
L 365.528516 168.03 
L 364.786719 168.78 
L 364.044922 168.03 
L 363.303125 167.28 
L 362.561328 168.03 
L 361.819531 168.78 
L 361.077734 168.03 
L 360.335938 167.28 
L 359.594141 168.03 
L 358.852344 168.78 
L 358.110547 168.03 
L 357.36875 167.28 
L 356.626953 168.03 
L 355.885156 168.78 
L 355.143359 168.03 
L 354.401563 167.28 
L 353.659766 168.03 
L 352.917969 168.78 
L 352.176172 168.03 
L 351.434375 167.28 
L 350.692578 168.03 
L 349.950781 168.78 
L 349.208984 168.03 
L 348.467187 167.28 
L 347.725391 168.03 
L 346.983594 168.78 
L 346.241797 168.03 
L 345.5 167.28 
L 344.758203 168.03 
L 344.016406 168.78 
L 343.274609 168.03 
L 342.532812 167.28 
L 341.791016 168.03 
L 341.049219 168.78 
L 340.307422 168.03 
L 339.565625 167.28 
L 338.823828 168.03 
L 338.082031 168.78 
L 337.340234 168.03 
L 336.598437 167.28 
L 335.856641 168.03 
L 335.114844 168.78 
L 334.373047 168.03 
L 333.63125 167.28 
L 332.889453 168.03 
L 332.147656 168.78 
L 331.405859 168.03 
L 330.664062 167.28 
L 329.922266 168.03 
L 329.180469 168.78 
L 328.438672 168.03 
L 327.696875 167.28 
L 326.955078 168.03 
L 326.213281 168.78 
L 325.471484 168.03 
L 324.729688 167.28 
L 323.987891 168.03 
L 323.246094 168.78 
L 322.504297 168.03 
L 321.7625 167.28 
L 321.0125 168.03 
L 320.2625 168.78 
L 321.0125 169.572383 
L 321.7625 170.364766 
L 321.0125 171.157148 
L 320.2625 171.949531 
L 321.0125 172.741914 
L 321.7625 173.534297 
L 321.0125 174.32668 
L 320.2625 175.119062 
L 321.0125 175.911445 
L 321.7625 176.703828 
L 321.0125 177.496211 
L 320.2625 178.288594 
L 321.0125 179.080977 
L 321.7625 179.873359 
L 321.0125 180.665742 
L 320.2625 181.458125 
z
" style="fill:#cccccc;stroke:#000000;stroke-linejoin:miter;"/>
    </g>
    <!-- prescript -->
    <g transform="translate(323.2625 177.878437)scale(0.1 -0.1)">
     <use xlink:href="#DejaVuSans-70"/>
     <use x="63.476562" xlink:href="#DejaVuSans-72"/>
     <use x="104.558594" xlink:href="#DejaVuSans-65"/>
     <use x="166.082031" xlink:href="#DejaVuSans-73"/>
     <use x="218.181641" xlink:href="#DejaVuSans-63"/>
     <use x="273.162109" xlink:href="#DejaVuSans-72"/>
     <use x="314.275391" xlink:href="#DejaVuSans-69"/>
     <use x="342.058594" xlink:href="#DejaVuSans-70"/>
     <use x="405.535156" xlink:href="#DejaVuSans-74"/>
    </g>
   </g>
   <g id="patch_12">
    <path d="M 275.19507 220.779469 
Q 309.040581 198.798083 343.82373 176.207737 
" style="fill:none;stroke:#000000;stroke-linecap:round;"/>
    <path d="M 279.639011 220.278082 
L 275.19507 220.779469 
L 277.460326 216.923484 
" style="fill:none;stroke:#000000;stroke-linecap:round;"/>
   </g>
   <g id="text_10">
    <g id="patch_13">
     <path d="M 250.916406 235.818125 
C 252.416406 237.318125 271.183594 237.318125 272.683594 235.818125 
C 274.183594 234.318125 274.183594 224.64 272.683594 223.14 
C 271.183594 221.64 252.416406 221.64 250.916406 223.14 
C 249.416406 224.64 249.416406 234.318125 250.916406 235.818125 
z
" style="fill:#cccccc;stroke:#000000;stroke-linejoin:miter;"/>
    </g>
    <!-- soft -->
    <g transform="translate(252.416406 232.238438)scale(0.1 -0.1)">
     <use xlink:href="#DejaVuSans-73"/>
     <use x="52.099609" xlink:href="#DejaVuSans-6f"/>
     <use x="113.28125" xlink:href="#DejaVuSans-66"/>
     <use x="148.470703" xlink:href="#DejaVuSans-74"/>
    </g>
   </g>
   <g id="text_11">
    <!-- hyper -->
    <defs>
     <path d="M 54.890625 33.015625 
L 54.890625 0 
L 45.90625 0 
L 45.90625 32.71875 
Q 45.90625 40.484375 42.875 44.328125 
Q 39.84375 48.1875 33.796875 48.1875 
Q 26.515625 48.1875 22.3125 43.546875 
Q 18.109375 38.921875 18.109375 30.90625 
L 18.109375 0 
L 9.078125 0 
L 9.078125 75.984375 
L 18.109375 75.984375 
L 18.109375 46.1875 
Q 21.34375 51.125 25.703125 53.5625 
Q 30.078125 56 35.796875 56 
Q 45.21875 56 50.046875 50.171875 
Q 54.890625 44.34375 54.890625 33.015625 
z
" id="DejaVuSans-68"/>
    </defs>
    <g transform="translate(303.65 202.299062)scale(0.1 -0.1)">
     <use xlink:href="#DejaVuSans-68"/>
     <use x="63.378906" xlink:href="#DejaVuSans-79"/>
     <use x="122.558594" xlink:href="#DejaVuSans-70"/>
     <use x="186.035156" xlink:href="#DejaVuSans-65"/>
     <use x="247.558594" xlink:href="#DejaVuSans-72"/>
    </g>
   </g>
   <g id="patch_14">
    <path d="M 414.546466 219.962144 
Q 381.330332 198.389515 347.17656 176.207925 
" style="fill:none;stroke:#000000;stroke-linecap:round;"/>
    <path d="M 412.28121 216.106159 
L 414.546466 219.962144 
L 410.102525 219.460757 
" style="fill:none;stroke:#000000;stroke-linecap:round;"/>
   </g>
   <g id="text_12">
    <g id="patch_15">
     <path d="M 403.9625 235.818125 
C 405.4625 237.318125 452.9375 237.318125 454.4375 235.818125 
C 455.9375 234.318125 455.9375 224.64 454.4375 223.14 
C 452.9375 221.64 405.4625 221.64 403.9625 223.14 
C 402.4625 224.64 402.4625 234.318125 403.9625 235.818125 
z
" style="fill:#cccccc;stroke:#000000;stroke-linejoin:miter;"/>
    </g>
    <!-- no lenses -->
    <defs>
     <path id="DejaVuSans-20"/>
    </defs>
    <g transform="translate(405.4625 232.238438)scale(0.1 -0.1)">
     <use xlink:href="#DejaVuSans-6e"/>
     <use x="63.378906" xlink:href="#DejaVuSans-6f"/>
     <use x="124.560547" xlink:href="#DejaVuSans-20"/>
     <use x="156.347656" xlink:href="#DejaVuSans-6c"/>
     <use x="184.130859" xlink:href="#DejaVuSans-65"/>
     <use x="245.654297" xlink:href="#DejaVuSans-6e"/>
     <use x="309.033203" xlink:href="#DejaVuSans-73"/>
     <use x="361.132812" xlink:href="#DejaVuSans-65"/>
     <use x="422.65625" xlink:href="#DejaVuSans-73"/>
    </g>
   </g>
   <g id="text_13">
    <!-- myope -->
    <g transform="translate(387.35 202.299062)scale(0.1 -0.1)">
     <use xlink:href="#DejaVuSans-6d"/>
     <use x="97.412109" xlink:href="#DejaVuSans-79"/>
     <use x="156.591797" xlink:href="#DejaVuSans-6f"/>
     <use x="217.773438" xlink:href="#DejaVuSans-70"/>
     <use x="281.25" xlink:href="#DejaVuSans-65"/>
    </g>
   </g>
   <g id="patch_16">
    <path d="M 581.061574 172.596157 
Q 422.967588 146.927133 263.770019 121.078926 
" style="fill:none;stroke:#000000;stroke-linecap:round;"/>
    <path d="M 577.433813 169.980942 
L 581.061574 172.596157 
L 576.792746 173.929237 
" style="fill:none;stroke:#000000;stroke-linecap:round;"/>
   </g>
   <g id="text_14">
    <g id="patch_17">
     <path d="M 585.716406 181.458125 
C 587.216406 182.958125 605.983594 182.958125 607.483594 181.458125 
C 608.983594 179.958125 608.983594 170.28 607.483594 168.78 
C 605.983594 167.28 587.216406 167.28 585.716406 168.78 
C 584.216406 170.28 584.216406 179.958125 585.716406 181.458125 
z
" style="fill:#cccccc;stroke:#000000;stroke-linejoin:miter;"/>
    </g>
    <!-- soft -->
    <g transform="translate(587.216406 177.878437)scale(0.1 -0.1)">
     <use xlink:href="#DejaVuSans-73"/>
     <use x="52.099609" xlink:href="#DejaVuSans-6f"/>
     <use x="113.28125" xlink:href="#DejaVuSans-66"/>
     <use x="148.470703" xlink:href="#DejaVuSans-74"/>
    </g>
   </g>
   <g id="text_15">
    <!-- young -->
    <defs>
     <path d="M 8.5 21.578125 
L 8.5 54.6875 
L 17.484375 54.6875 
L 17.484375 21.921875 
Q 17.484375 14.15625 20.5 10.265625 
Q 23.53125 6.390625 29.59375 6.390625 
Q 36.859375 6.390625 41.078125 11.03125 
Q 45.3125 15.671875 45.3125 23.6875 
L 45.3125 54.6875 
L 54.296875 54.6875 
L 54.296875 0 
L 45.3125 0 
L 45.3125 8.40625 
Q 42.046875 3.421875 37.71875 1 
Q 33.40625 -1.421875 27.6875 -1.421875 
Q 18.265625 -1.421875 13.375 4.4375 
Q 8.5 10.296875 8.5 21.578125 
z
M 31.109375 56 
z
" id="DejaVuSans-75"/>
    </defs>
    <g transform="translate(429.2 147.939063)scale(0.1 -0.1)">
     <use xlink:href="#DejaVuSans-79"/>
     <use x="59.179688" xlink:href="#DejaVuSans-6f"/>
     <use x="120.361328" xlink:href="#DejaVuSans-75"/>
     <use x="183.740234" xlink:href="#DejaVuSans-6e"/>
     <use x="247.119141" xlink:href="#DejaVuSans-67"/>
    </g>
   </g>
   <g id="text_16">
    <!-- yes -->
    <g transform="translate(512.9 93.579062)scale(0.1 -0.1)">
     <use xlink:href="#DejaVuSans-79"/>
     <use x="59.179688" xlink:href="#DejaVuSans-65"/>
     <use x="120.703125" xlink:href="#DejaVuSans-73"/>
    </g>
   </g>
   <g id="patch_18">
    <path d="M 819.757706 118.490629 
Q 500.483993 92.571096 180.095912 66.561096 
" style="fill:none;stroke:#000000;stroke-linecap:round;"/>
    <path d="M 815.932656 116.173521 
L 819.757706 118.490629 
L 815.608989 120.160404 
" style="fill:none;stroke:#000000;stroke-linecap:round;"/>
   </g>
   <g id="text_17">
    <g id="patch_19">
     <path d="M 823.2125 127.848125 
L 823.9625 128.598125 
L 824.704297 127.848125 
L 825.446094 127.098125 
L 826.187891 127.848125 
L 826.929688 128.598125 
L 827.671484 127.848125 
L 828.413281 127.098125 
L 829.155078 127.848125 
L 829.896875 128.598125 
L 830.638672 127.848125 
L 831.380469 127.098125 
L 832.122266 127.848125 
L 832.864063 128.598125 
L 833.605859 127.848125 
L 834.347656 127.098125 
L 835.089453 127.848125 
L 835.83125 128.598125 
L 836.573047 127.848125 
L 837.314844 127.098125 
L 838.056641 127.848125 
L 838.798438 128.598125 
L 839.540234 127.848125 
L 840.282031 127.098125 
L 841.023828 127.848125 
L 841.765625 128.598125 
L 842.507422 127.848125 
L 843.249219 127.098125 
L 843.991016 127.848125 
L 844.732813 128.598125 
L 845.474609 127.848125 
L 846.216406 127.098125 
L 846.958203 127.848125 
L 847.7 128.598125 
L 848.441797 127.848125 
L 849.183594 127.098125 
L 849.925391 127.848125 
L 850.667188 128.598125 
L 851.408984 127.848125 
L 852.150781 127.098125 
L 852.892578 127.848125 
L 853.634375 128.598125 
L 854.376172 127.848125 
L 855.117969 127.098125 
L 855.859766 127.848125 
L 856.601563 128.598125 
L 857.343359 127.848125 
L 858.085156 127.098125 
L 858.826953 127.848125 
L 859.56875 128.598125 
L 860.310547 127.848125 
L 861.052344 127.098125 
L 861.794141 127.848125 
L 862.535938 128.598125 
L 863.277734 127.848125 
L 864.019531 127.098125 
L 864.761328 127.848125 
L 865.503125 128.598125 
L 866.244922 127.848125 
L 866.986719 127.098125 
L 867.728516 127.848125 
L 868.470313 128.598125 
L 869.212109 127.848125 
L 869.953906 127.098125 
L 870.695703 127.848125 
L 871.4375 128.598125 
L 872.1875 127.848125 
L 872.9375 127.098125 
L 872.1875 126.305742 
L 871.4375 125.513359 
L 872.1875 124.720977 
L 872.9375 123.928594 
L 872.1875 123.136211 
L 871.4375 122.343828 
L 872.1875 121.551445 
L 872.9375 120.759062 
L 872.1875 119.96668 
L 871.4375 119.174297 
L 872.1875 118.381914 
L 872.9375 117.589531 
L 872.1875 116.797148 
L 871.4375 116.004766 
L 872.1875 115.212383 
L 872.9375 114.42 
L 872.1875 113.67 
L 871.4375 112.92 
L 870.695703 113.67 
L 869.953906 114.42 
L 869.212109 113.67 
L 868.470313 112.92 
L 867.728516 113.67 
L 866.986719 114.42 
L 866.244922 113.67 
L 865.503125 112.92 
L 864.761328 113.67 
L 864.019531 114.42 
L 863.277734 113.67 
L 862.535938 112.92 
L 861.794141 113.67 
L 861.052344 114.42 
L 860.310547 113.67 
L 859.56875 112.92 
L 858.826953 113.67 
L 858.085156 114.42 
L 857.343359 113.67 
L 856.601563 112.92 
L 855.859766 113.67 
L 855.117969 114.42 
L 854.376172 113.67 
L 853.634375 112.92 
L 852.892578 113.67 
L 852.150781 114.42 
L 851.408984 113.67 
L 850.667188 112.92 
L 849.925391 113.67 
L 849.183594 114.42 
L 848.441797 113.67 
L 847.7 112.92 
L 846.958203 113.67 
L 846.216406 114.42 
L 845.474609 113.67 
L 844.732813 112.92 
L 843.991016 113.67 
L 843.249219 114.42 
L 842.507422 113.67 
L 841.765625 112.92 
L 841.023828 113.67 
L 840.282031 114.42 
L 839.540234 113.67 
L 838.798438 112.92 
L 838.056641 113.67 
L 837.314844 114.42 
L 836.573047 113.67 
L 835.83125 112.92 
L 835.089453 113.67 
L 834.347656 114.42 
L 833.605859 113.67 
L 832.864063 112.92 
L 832.122266 113.67 
L 831.380469 114.42 
L 830.638672 113.67 
L 829.896875 112.92 
L 829.155078 113.67 
L 828.413281 114.42 
L 827.671484 113.67 
L 826.929688 112.92 
L 826.187891 113.67 
L 825.446094 114.42 
L 824.704297 113.67 
L 823.9625 112.92 
L 823.2125 113.67 
L 822.4625 114.42 
L 823.2125 115.212383 
L 823.9625 116.004766 
L 823.2125 116.797148 
L 822.4625 117.589531 
L 823.2125 118.381914 
L 823.9625 119.174297 
L 823.2125 119.96668 
L 822.4625 120.759062 
L 823.2125 121.551445 
L 823.9625 122.343828 
L 823.2125 123.136211 
L 822.4625 123.928594 
L 823.2125 124.720977 
L 823.9625 125.513359 
L 823.2125 126.305742 
L 822.4625 127.098125 
z
" style="fill:#cccccc;stroke:#000000;stroke-linejoin:miter;"/>
    </g>
    <!-- prescript -->
    <g transform="translate(825.4625 123.518438)scale(0.1 -0.1)">
     <use xlink:href="#DejaVuSans-70"/>
     <use x="63.476562" xlink:href="#DejaVuSans-72"/>
     <use x="104.558594" xlink:href="#DejaVuSans-65"/>
     <use x="166.082031" xlink:href="#DejaVuSans-73"/>
     <use x="218.181641" xlink:href="#DejaVuSans-63"/>
     <use x="273.162109" xlink:href="#DejaVuSans-72"/>
     <use x="314.275391" xlink:href="#DejaVuSans-69"/>
     <use x="342.058594" xlink:href="#DejaVuSans-70"/>
     <use x="405.535156" xlink:href="#DejaVuSans-74"/>
    </g>
   </g>
   <g id="text_18">
    <!-- hyper -->
    <g transform="translate(889.55 147.939063)scale(0.1 -0.1)">
     <use xlink:href="#DejaVuSans-68"/>
     <use x="63.378906" xlink:href="#DejaVuSans-79"/>
     <use x="122.558594" xlink:href="#DejaVuSans-70"/>
     <use x="186.035156" xlink:href="#DejaVuSans-65"/>
     <use x="247.558594" xlink:href="#DejaVuSans-72"/>
    </g>
   </g>
   <g id="patch_20">
    <path d="M 917.049605 165.799021 
Q 883.681243 144.127526 849.375242 121.847069 
" style="fill:none;stroke:#000000;stroke-linecap:round;"/>
    <path d="M 914.78435 161.943037 
L 917.049605 165.799021 
L 912.605664 165.297635 
" style="fill:none;stroke:#000000;stroke-linecap:round;"/>
   </g>
   <g id="text_19">
    <g id="patch_21">
     <path d="M 919.835156 182.208125 
L 920.585156 182.958125 
L 921.357645 182.208125 
L 922.130134 181.458125 
L 922.902623 182.208125 
L 923.675112 182.958125 
L 924.4476 182.208125 
L 925.220089 181.458125 
L 925.992578 182.208125 
L 926.765067 182.958125 
L 927.537556 182.208125 
L 928.310045 181.458125 
L 929.082533 182.208125 
L 929.855022 182.958125 
L 930.627511 182.208125 
L 931.4 181.458125 
L 932.172489 182.208125 
L 932.944978 182.958125 
L 933.717467 182.208125 
L 934.489955 181.458125 
L 935.262444 182.208125 
L 936.034933 182.958125 
L 936.807422 182.208125 
L 937.579911 181.458125 
L 938.3524 182.208125 
L 939.124888 182.958125 
L 939.897377 182.208125 
L 940.669866 181.458125 
L 941.442355 182.208125 
L 942.214844 182.958125 
L 942.964844 182.208125 
L 943.714844 181.458125 
L 942.964844 180.665742 
L 942.214844 179.873359 
L 942.964844 179.080977 
L 943.714844 178.288594 
L 942.964844 177.496211 
L 942.214844 176.703828 
L 942.964844 175.911445 
L 943.714844 175.119062 
L 942.964844 174.32668 
L 942.214844 173.534297 
L 942.964844 172.741914 
L 943.714844 171.949531 
L 942.964844 171.157148 
L 942.214844 170.364766 
L 942.964844 169.572383 
L 943.714844 168.78 
L 942.964844 168.03 
L 942.214844 167.28 
L 941.442355 168.03 
L 940.669866 168.78 
L 939.897377 168.03 
L 939.124888 167.28 
L 938.3524 168.03 
L 937.579911 168.78 
L 936.807422 168.03 
L 936.034933 167.28 
L 935.262444 168.03 
L 934.489955 168.78 
L 933.717467 168.03 
L 932.944978 167.28 
L 932.172489 168.03 
L 931.4 168.78 
L 930.627511 168.03 
L 929.855022 167.28 
L 929.082533 168.03 
L 928.310045 168.78 
L 927.537556 168.03 
L 926.765067 167.28 
L 925.992578 168.03 
L 925.220089 168.78 
L 924.4476 168.03 
L 923.675112 167.28 
L 922.902623 168.03 
L 922.130134 168.78 
L 921.357645 168.03 
L 920.585156 167.28 
L 919.835156 168.03 
L 919.085156 168.78 
L 919.835156 169.572383 
L 920.585156 170.364766 
L 919.835156 171.157148 
L 919.085156 171.949531 
L 919.835156 172.741914 
L 920.585156 173.534297 
L 919.835156 174.32668 
L 919.085156 175.119062 
L 919.835156 175.911445 
L 920.585156 176.703828 
L 919.835156 177.496211 
L 919.085156 178.288594 
L 919.835156 179.080977 
L 920.585156 179.873359 
L 919.835156 180.665742 
L 919.085156 181.458125 
z
" style="fill:#cccccc;stroke:#000000;stroke-linejoin:miter;"/>
    </g>
    <!-- age -->
    <g transform="translate(922.085156 177.878437)scale(0.1 -0.1)">
     <use xlink:href="#DejaVuSans-61"/>
     <use x="61.279297" xlink:href="#DejaVuSans-67"/>
     <use x="124.755859" xlink:href="#DejaVuSans-65"/>
    </g>
   </g>
   <g id="patch_22">
    <path d="M 789.490422 221.201528 
Q 858.964531 198.641118 929.502013 175.735398 
" style="fill:none;stroke:#000000;stroke-linecap:round;"/>
    <path d="M 793.912568 221.868327 
L 789.490422 221.201528 
L 792.677149 218.06389 
" style="fill:none;stroke:#000000;stroke-linecap:round;"/>
   </g>
   <g id="text_20">
    <g id="patch_23">
     <path d="M 738.7625 235.818125 
C 740.2625 237.318125 787.7375 237.318125 789.2375 235.818125 
C 790.7375 234.318125 790.7375 224.64 789.2375 223.14 
C 787.7375 221.64 740.2625 221.64 738.7625 223.14 
C 737.2625 224.64 737.2625 234.318125 738.7625 235.818125 
z
" style="fill:#cccccc;stroke:#000000;stroke-linejoin:miter;"/>
    </g>
    <!-- no lenses -->
    <g transform="translate(740.2625 232.238438)scale(0.1 -0.1)">
     <use xlink:href="#DejaVuSans-6e"/>
     <use x="63.378906" xlink:href="#DejaVuSans-6f"/>
     <use x="124.560547" xlink:href="#DejaVuSans-20"/>
     <use x="156.347656" xlink:href="#DejaVuSans-6c"/>
     <use x="184.130859" xlink:href="#DejaVuSans-65"/>
     <use x="245.654297" xlink:href="#DejaVuSans-6e"/>
     <use x="309.033203" xlink:href="#DejaVuSans-73"/>
     <use x="361.132812" xlink:href="#DejaVuSans-65"/>
     <use x="422.65625" xlink:href="#DejaVuSans-73"/>
    </g>
   </g>
   <g id="text_21">
    <!-- pre -->
    <g transform="translate(847.7 202.299062)scale(0.1 -0.1)">
     <use xlink:href="#DejaVuSans-70"/>
     <use x="63.476562" xlink:href="#DejaVuSans-72"/>
     <use x="104.558594" xlink:href="#DejaVuSans-65"/>
    </g>
   </g>
   <g id="patch_24">
    <path d="M 931.4 218.442957 
Q 931.4 198.33959 931.4 177.11819 
" style="fill:none;stroke:#000000;stroke-linecap:round;"/>
    <path d="M 933.4 214.442957 
L 931.4 218.442957 
L 929.4 214.442957 
" style="fill:none;stroke:#000000;stroke-linecap:round;"/>
   </g>
   <g id="text_22">
    <g id="patch_25">
     <path d="M 906.1625 235.818125 
C 907.6625 237.318125 955.1375 237.318125 956.6375 235.818125 
C 958.1375 234.318125 958.1375 224.64 956.6375 223.14 
C 955.1375 221.64 907.6625 221.64 906.1625 223.14 
C 904.6625 224.64 904.6625 234.318125 906.1625 235.818125 
z
" style="fill:#cccccc;stroke:#000000;stroke-linejoin:miter;"/>
    </g>
    <!-- no lenses -->
    <g transform="translate(907.6625 232.238438)scale(0.1 -0.1)">
     <use xlink:href="#DejaVuSans-6e"/>
     <use x="63.378906" xlink:href="#DejaVuSans-6f"/>
     <use x="124.560547" xlink:href="#DejaVuSans-20"/>
     <use x="156.347656" xlink:href="#DejaVuSans-6c"/>
     <use x="184.130859" xlink:href="#DejaVuSans-65"/>
     <use x="245.654297" xlink:href="#DejaVuSans-6e"/>
     <use x="309.033203" xlink:href="#DejaVuSans-73"/>
     <use x="361.132812" xlink:href="#DejaVuSans-65"/>
     <use x="422.65625" xlink:href="#DejaVuSans-73"/>
    </g>
   </g>
   <g id="text_23">
    <!-- presbyopic -->
    <g transform="translate(931.4 202.299062)scale(0.1 -0.1)">
     <use xlink:href="#DejaVuSans-70"/>
     <use x="63.476562" xlink:href="#DejaVuSans-72"/>
     <use x="104.558594" xlink:href="#DejaVuSans-65"/>
     <use x="166.082031" xlink:href="#DejaVuSans-73"/>
     <use x="218.181641" xlink:href="#DejaVuSans-62"/>
     <use x="281.658203" xlink:href="#DejaVuSans-79"/>
     <use x="340.837891" xlink:href="#DejaVuSans-6f"/>
     <use x="402.019531" xlink:href="#DejaVuSans-70"/>
     <use x="465.496094" xlink:href="#DejaVuSans-69"/>
     <use x="493.279297" xlink:href="#DejaVuSans-63"/>
    </g>
   </g>
   <g id="patch_26">
    <path d="M 1081.694847 223.924486 
Q 1008.028332 200.002671 933.298444 175.735547 
" style="fill:none;stroke:#000000;stroke-linecap:round;"/>
    <path d="M 1078.50812 220.786848 
L 1081.694847 223.924486 
L 1077.272701 224.591285 
" style="fill:none;stroke:#000000;stroke-linecap:round;"/>
   </g>
   <g id="text_24">
    <g id="patch_27">
     <path d="M 1085.838281 235.818125 
C 1087.338281 237.318125 1110.261719 237.318125 1111.761719 235.818125 
C 1113.261719 234.318125 1113.261719 224.64 1111.761719 223.14 
C 1110.261719 221.64 1087.338281 221.64 1085.838281 223.14 
C 1084.338281 224.64 1084.338281 234.318125 1085.838281 235.818125 
z
" style="fill:#cccccc;stroke:#000000;stroke-linejoin:miter;"/>
    </g>
    <!-- hard -->
    <defs>
     <path d="M 45.40625 46.390625 
L 45.40625 75.984375 
L 54.390625 75.984375 
L 54.390625 0 
L 45.40625 0 
L 45.40625 8.203125 
Q 42.578125 3.328125 38.25 0.953125 
Q 33.9375 -1.421875 27.875 -1.421875 
Q 17.96875 -1.421875 11.734375 6.484375 
Q 5.515625 14.40625 5.515625 27.296875 
Q 5.515625 40.1875 11.734375 48.09375 
Q 17.96875 56 27.875 56 
Q 33.9375 56 38.25 53.625 
Q 42.578125 51.265625 45.40625 46.390625 
z
M 14.796875 27.296875 
Q 14.796875 17.390625 18.875 11.75 
Q 22.953125 6.109375 30.078125 6.109375 
Q 37.203125 6.109375 41.296875 11.75 
Q 45.40625 17.390625 45.40625 27.296875 
Q 45.40625 37.203125 41.296875 42.84375 
Q 37.203125 48.484375 30.078125 48.484375 
Q 22.953125 48.484375 18.875 42.84375 
Q 14.796875 37.203125 14.796875 27.296875 
z
" id="DejaVuSans-64"/>
    </defs>
    <g transform="translate(1087.338281 232.238438)scale(0.1 -0.1)">
     <use xlink:href="#DejaVuSans-68"/>
     <use x="63.378906" xlink:href="#DejaVuSans-61"/>
     <use x="124.658203" xlink:href="#DejaVuSans-72"/>
     <use x="165.755859" xlink:href="#DejaVuSans-64"/>
    </g>
   </g>
   <g id="text_25">
    <!-- young -->
    <g transform="translate(1015.1 202.299062)scale(0.1 -0.1)">
     <use xlink:href="#DejaVuSans-79"/>
     <use x="59.179688" xlink:href="#DejaVuSans-6f"/>
     <use x="120.361328" xlink:href="#DejaVuSans-75"/>
     <use x="183.740234" xlink:href="#DejaVuSans-6e"/>
     <use x="247.119141" xlink:href="#DejaVuSans-67"/>
    </g>
   </g>
   <g id="patch_28">
    <path d="M 1248.572279 172.829354 
Q 1049.682632 146.995086 849.684266 121.016804 
" style="fill:none;stroke:#000000;stroke-linecap:round;"/>
    <path d="M 1244.863223 170.330774 
L 1248.572279 172.829354 
L 1244.347981 174.297451 
" style="fill:none;stroke:#000000;stroke-linecap:round;"/>
   </g>
   <g id="text_26">
    <g id="patch_29">
     <path d="M 1253.238281 181.458125 
C 1254.738281 182.958125 1277.661719 182.958125 1279.161719 181.458125 
C 1280.661719 179.958125 1280.661719 170.28 1279.161719 168.78 
C 1277.661719 167.28 1254.738281 167.28 1253.238281 168.78 
C 1251.738281 170.28 1251.738281 179.958125 1253.238281 181.458125 
z
" style="fill:#cccccc;stroke:#000000;stroke-linejoin:miter;"/>
    </g>
    <!-- hard -->
    <g transform="translate(1254.738281 177.878437)scale(0.1 -0.1)">
     <use xlink:href="#DejaVuSans-68"/>
     <use x="63.378906" xlink:href="#DejaVuSans-61"/>
     <use x="124.658203" xlink:href="#DejaVuSans-72"/>
     <use x="165.755859" xlink:href="#DejaVuSans-64"/>
    </g>
   </g>
   <g id="text_27">
    <!-- myope -->
    <g transform="translate(1056.95 147.939063)scale(0.1 -0.1)">
     <use xlink:href="#DejaVuSans-6d"/>
     <use x="97.412109" xlink:href="#DejaVuSans-79"/>
     <use x="156.591797" xlink:href="#DejaVuSans-6f"/>
     <use x="217.773438" xlink:href="#DejaVuSans-70"/>
     <use x="281.25" xlink:href="#DejaVuSans-65"/>
    </g>
   </g>
   <g id="patch_30">
    <path d="M 1403.666054 65.102998 
Q 792.440578 38.638468 180.098114 12.125576 
" style="fill:none;stroke:#000000;stroke-linecap:round;"/>
    <path d="M 1399.756312 62.931842 
L 1403.666054 65.102998 
L 1399.583284 66.928098 
" style="fill:none;stroke:#000000;stroke-linecap:round;"/>
   </g>
   <g id="text_28">
    <g id="patch_31">
     <path d="M 1408.3625 72.738125 
C 1409.8625 74.238125 1457.3375 74.238125 1458.8375 72.738125 
C 1460.3375 71.238125 1460.3375 61.56 1458.8375 60.06 
C 1457.3375 58.56 1409.8625 58.56 1408.3625 60.06 
C 1406.8625 61.56 1406.8625 71.238125 1408.3625 72.738125 
z
" style="fill:#cccccc;stroke:#000000;stroke-linejoin:miter;"/>
    </g>
    <!-- no lenses -->
    <g transform="translate(1409.8625 69.158438)scale(0.1 -0.1)">
     <use xlink:href="#DejaVuSans-6e"/>
     <use x="63.378906" xlink:href="#DejaVuSans-6f"/>
     <use x="124.560547" xlink:href="#DejaVuSans-20"/>
     <use x="156.347656" xlink:href="#DejaVuSans-6c"/>
     <use x="184.130859" xlink:href="#DejaVuSans-65"/>
     <use x="245.654297" xlink:href="#DejaVuSans-6e"/>
     <use x="309.033203" xlink:href="#DejaVuSans-73"/>
     <use x="361.132812" xlink:href="#DejaVuSans-65"/>
     <use x="422.65625" xlink:href="#DejaVuSans-73"/>
    </g>
   </g>
   <g id="text_29">
    <!-- reduced -->
    <g transform="translate(805.85 39.219063)scale(0.1 -0.1)">
     <use xlink:href="#DejaVuSans-72"/>
     <use x="41.082031" xlink:href="#DejaVuSans-65"/>
     <use x="102.605469" xlink:href="#DejaVuSans-64"/>
     <use x="166.082031" xlink:href="#DejaVuSans-75"/>
     <use x="229.460938" xlink:href="#DejaVuSans-63"/>
     <use x="284.441406" xlink:href="#DejaVuSans-65"/>
     <use x="345.964844" xlink:href="#DejaVuSans-64"/>
    </g>
   </g>
  </g>
 </g>
</svg>
