<?xml version="1.0" encoding="utf-8" standalone="no"?>
<!DOCTYPE svg PUBLIC "-//W3C//DTD SVG 1.1//EN"
  "http://www.w3.org/Graphics/SVG/1.1/DTD/svg11.dtd">
<!-- Created with matplotlib (http://matplotlib.org/) -->
<svg height="241pt" version="1.1" viewBox="0 0 445 241" width="445pt" xmlns="http://www.w3.org/2000/svg" xmlns:xlink="http://www.w3.org/1999/xlink">
 <defs>
  <style type="text/css">
*{stroke-linecap:butt;stroke-linejoin:round;}
  </style>
 </defs>
 <g id="figure_1">
  <g id="patch_1">
   <path d="M 0 241.518125 
L 445.040625 241.518125 
L 445.040625 0 
L 0 0 
z
" style="fill:#ffffff;"/>
  </g>
  <g id="axes_1">
   <g id="matplotlib.axis_1"/>
   <g id="matplotlib.axis_2"/>
   <g id="patch_2">
    <path d="M 178.1 12.039062 
Q 178.1 12.039062 178.1 12.039062 
" style="fill:none;stroke:#000000;stroke-linecap:round;"/>
   </g>
   <g id="text_1">
    <g id="patch_3">
     <path d="M 144.898438 19.128125 
L 145.648438 19.878125 
L 146.385973 19.128125 
L 147.123509 18.378125 
L 147.861044 19.128125 
L 148.59858 19.878125 
L 149.336115 19.128125 
L 150.073651 18.378125 
L 150.811186 19.128125 
L 151.548722 19.878125 
L 152.286257 19.128125 
L 153.023793 18.378125 
L 153.761328 19.128125 
L 154.498864 19.878125 
L 155.236399 19.128125 
L 155.973935 18.378125 
L 156.71147 19.128125 
L 157.449006 19.878125 
L 158.186541 19.128125 
L 158.924077 18.378125 
L 159.661612 19.128125 
L 160.399148 19.878125 
L 161.136683 19.128125 
L 161.874219 18.378125 
L 162.611754 19.128125 
L 163.34929 19.878125 
L 164.086825 19.128125 
L 164.824361 18.378125 
L 165.561896 19.128125 
L 166.299432 19.878125 
L 167.036967 19.128125 
L 167.774503 18.378125 
L 168.512038 19.128125 
L 169.249574 19.878125 
L 169.987109 19.128125 
L 170.724645 18.378125 
L 171.46218 19.128125 
L 172.199716 19.878125 
L 172.937251 19.128125 
L 173.674787 18.378125 
L 174.412322 19.128125 
L 175.149858 19.878125 
L 175.887393 19.128125 
L 176.624929 18.378125 
L 177.362464 19.128125 
L 178.1 19.878125 
L 178.837536 19.128125 
L 179.575071 18.378125 
L 180.312607 19.128125 
L 181.050142 19.878125 
L 181.787678 19.128125 
L 182.525213 18.378125 
L 183.262749 19.128125 
L 184.000284 19.878125 
L 184.73782 19.128125 
L 185.475355 18.378125 
L 186.212891 19.128125 
L 186.950426 19.878125 
L 187.687962 19.128125 
L 188.425497 18.378125 
L 189.163033 19.128125 
L 189.900568 19.878125 
L 190.638104 19.128125 
L 191.375639 18.378125 
L 192.113175 19.128125 
L 192.85071 19.878125 
L 193.588246 19.128125 
L 194.325781 18.378125 
L 195.063317 19.128125 
L 195.800852 19.878125 
L 196.538388 19.128125 
L 197.275923 18.378125 
L 198.013459 19.128125 
L 198.750994 19.878125 
L 199.48853 19.128125 
L 200.226065 18.378125 
L 200.963601 19.128125 
L 201.701136 19.878125 
L 202.438672 19.128125 
L 203.176207 18.378125 
L 203.913743 19.128125 
L 204.651278 19.878125 
L 205.388814 19.128125 
L 206.126349 18.378125 
L 206.863885 19.128125 
L 207.60142 19.878125 
L 208.338956 19.128125 
L 209.076491 18.378125 
L 209.814027 19.128125 
L 210.551563 19.878125 
L 211.301563 19.128125 
L 212.051563 18.378125 
L 211.301563 17.585742 
L 210.551563 16.793359 
L 211.301563 16.000977 
L 212.051563 15.208594 
L 211.301563 14.416211 
L 210.551563 13.623828 
L 211.301563 12.831445 
L 212.051563 12.039063 
L 211.301563 11.24668 
L 210.551563 10.454297 
L 211.301563 9.661914 
L 212.051563 8.869531 
L 211.301563 8.077148 
L 210.551563 7.284766 
L 211.301563 6.492383 
L 212.051563 5.7 
L 211.301563 4.95 
L 210.551563 4.2 
L 209.814027 4.95 
L 209.076491 5.7 
L 208.338956 4.95 
L 207.60142 4.2 
L 206.863885 4.95 
L 206.126349 5.7 
L 205.388814 4.95 
L 204.651278 4.2 
L 203.913743 4.95 
L 203.176207 5.7 
L 202.438672 4.95 
L 201.701136 4.2 
L 200.963601 4.95 
L 200.226065 5.7 
L 199.48853 4.95 
L 198.750994 4.2 
L 198.013459 4.95 
L 197.275923 5.7 
L 196.538388 4.95 
L 195.800852 4.2 
L 195.063317 4.95 
L 194.325781 5.7 
L 193.588246 4.95 
L 192.85071 4.2 
L 192.113175 4.95 
L 191.375639 5.7 
L 190.638104 4.95 
L 189.900568 4.2 
L 189.163033 4.95 
L 188.425497 5.7 
L 187.687962 4.95 
L 186.950426 4.2 
L 186.212891 4.95 
L 185.475355 5.7 
L 184.73782 4.95 
L 184.000284 4.2 
L 183.262749 4.95 
L 182.525213 5.7 
L 181.787678 4.95 
L 181.050142 4.2 
L 180.312607 4.95 
L 179.575071 5.7 
L 178.837536 4.95 
L 178.1 4.2 
L 177.362464 4.95 
L 176.624929 5.7 
L 175.887393 4.95 
L 175.149858 4.2 
L 174.412322 4.95 
L 173.674787 5.7 
L 172.937251 4.95 
L 172.199716 4.2 
L 171.46218 4.95 
L 170.724645 5.7 
L 169.987109 4.95 
L 169.249574 4.2 
L 168.512038 4.95 
L 167.774503 5.7 
L 167.036967 4.95 
L 166.299432 4.2 
L 165.561896 4.95 
L 164.824361 5.7 
L 164.086825 4.95 
L 163.34929 4.2 
L 162.611754 4.95 
L 161.874219 5.7 
L 161.136683 4.95 
L 160.399148 4.2 
L 159.661612 4.95 
L 158.924077 5.7 
L 158.186541 4.95 
L 157.449006 4.2 
L 156.71147 4.95 
L 155.973935 5.7 
L 155.236399 4.95 
L 154.498864 4.2 
L 153.761328 4.95 
L 153.023793 5.7 
L 152.286257 4.95 
L 151.548722 4.2 
L 150.811186 4.95 
L 150.073651 5.7 
L 149.336115 4.95 
L 148.59858 4.2 
L 147.861044 4.95 
L 147.123509 5.7 
L 146.385973 4.95 
L 145.648438 4.2 
L 144.898438 4.95 
L 144.148438 5.7 
L 144.898438 6.492383 
L 145.648438 7.284766 
L 144.898438 8.077148 
L 144.148438 8.869531 
L 144.898438 9.661914 
L 145.648438 10.454297 
L 144.898438 11.24668 
L 144.148438 12.039063 
L 144.898438 12.831445 
L 145.648438 13.623828 
L 144.898438 14.416211 
L 144.148438 15.208594 
L 144.898438 16.000977 
L 145.648438 16.793359 
L 144.898438 17.585742 
L 144.148438 18.378125 
z
" style="fill:#cccccc;stroke:#000000;stroke-linejoin:miter;"/>
    </g>
    <!-- no surfacing -->
    <defs>
     <path d="M 54.890625 33.015625 
L 54.890625 0 
L 45.90625 0 
L 45.90625 32.71875 
Q 45.90625 40.484375 42.875 44.328125 
Q 39.84375 48.1875 33.796875 48.1875 
Q 26.515625 48.1875 22.3125 43.546875 
Q 18.109375 38.921875 18.109375 30.90625 
L 18.109375 0 
L 9.078125 0 
L 9.078125 54.6875 
L 18.109375 54.6875 
L 18.109375 46.1875 
Q 21.34375 51.125 25.703125 53.5625 
Q 30.078125 56 35.796875 56 
Q 45.21875 56 50.046875 50.171875 
Q 54.890625 44.34375 54.890625 33.015625 
z
" id="DejaVuSans-6e"/>
     <path d="M 30.609375 48.390625 
Q 23.390625 48.390625 19.1875 42.75 
Q 14.984375 37.109375 14.984375 27.296875 
Q 14.984375 17.484375 19.15625 11.84375 
Q 23.34375 6.203125 30.609375 6.203125 
Q 37.796875 6.203125 41.984375 11.859375 
Q 46.1875 17.53125 46.1875 27.296875 
Q 46.1875 37.015625 41.984375 42.703125 
Q 37.796875 48.390625 30.609375 48.390625 
z
M 30.609375 56 
Q 42.328125 56 49.015625 48.375 
Q 55.71875 40.765625 55.71875 27.296875 
Q 55.71875 13.875 49.015625 6.21875 
Q 42.328125 -1.421875 30.609375 -1.421875 
Q 18.84375 -1.421875 12.171875 6.21875 
Q 5.515625 13.875 5.515625 27.296875 
Q 5.515625 40.765625 12.171875 48.375 
Q 18.84375 56 30.609375 56 
z
" id="DejaVuSans-6f"/>
     <path id="DejaVuSans-20"/>
     <path d="M 44.28125 53.078125 
L 44.28125 44.578125 
Q 40.484375 46.53125 36.375 47.5 
Q 32.28125 48.484375 27.875 48.484375 
Q 21.1875 48.484375 17.84375 46.4375 
Q 14.5 44.390625 14.5 40.28125 
Q 14.5 37.15625 16.890625 35.375 
Q 19.28125 33.59375 26.515625 31.984375 
L 29.59375 31.296875 
Q 39.15625 29.25 43.1875 25.515625 
Q 47.21875 21.78125 47.21875 15.09375 
Q 47.21875 7.46875 41.1875 3.015625 
Q 35.15625 -1.421875 24.609375 -1.421875 
Q 20.21875 -1.421875 15.453125 -0.5625 
Q 10.6875 0.296875 5.421875 2 
L 5.421875 11.28125 
Q 10.40625 8.6875 15.234375 7.390625 
Q 20.0625 6.109375 24.8125 6.109375 
Q 31.15625 6.109375 34.5625 8.28125 
Q 37.984375 10.453125 37.984375 14.40625 
Q 37.984375 18.0625 35.515625 20.015625 
Q 33.0625 21.96875 24.703125 23.78125 
L 21.578125 24.515625 
Q 13.234375 26.265625 9.515625 29.90625 
Q 5.8125 33.546875 5.8125 39.890625 
Q 5.8125 47.609375 11.28125 51.796875 
Q 16.75 56 26.8125 56 
Q 31.78125 56 36.171875 55.265625 
Q 40.578125 54.546875 44.28125 53.078125 
z
" id="DejaVuSans-73"/>
     <path d="M 8.5 21.578125 
L 8.5 54.6875 
L 17.484375 54.6875 
L 17.484375 21.921875 
Q 17.484375 14.15625 20.5 10.265625 
Q 23.53125 6.390625 29.59375 6.390625 
Q 36.859375 6.390625 41.078125 11.03125 
Q 45.3125 15.671875 45.3125 23.6875 
L 45.3125 54.6875 
L 54.296875 54.6875 
L 54.296875 0 
L 45.3125 0 
L 45.3125 8.40625 
Q 42.046875 3.421875 37.71875 1 
Q 33.40625 -1.421875 27.6875 -1.421875 
Q 18.265625 -1.421875 13.375 4.4375 
Q 8.5 10.296875 8.5 21.578125 
z
M 31.109375 56 
z
" id="DejaVuSans-75"/>
     <path d="M 41.109375 46.296875 
Q 39.59375 47.171875 37.8125 47.578125 
Q 36.03125 48 33.890625 48 
Q 26.265625 48 22.1875 43.046875 
Q 18.109375 38.09375 18.109375 28.8125 
L 18.109375 0 
L 9.078125 0 
L 9.078125 54.6875 
L 18.109375 54.6875 
L 18.109375 46.1875 
Q 20.953125 51.171875 25.484375 53.578125 
Q 30.03125 56 36.53125 56 
Q 37.453125 56 38.578125 55.875 
Q 39.703125 55.765625 41.0625 55.515625 
z
" id="DejaVuSans-72"/>
     <path d="M 37.109375 75.984375 
L 37.109375 68.5 
L 28.515625 68.5 
Q 23.6875 68.5 21.796875 66.546875 
Q 19.921875 64.59375 19.921875 59.515625 
L 19.921875 54.6875 
L 34.71875 54.6875 
L 34.71875 47.703125 
L 19.921875 47.703125 
L 19.921875 0 
L 10.890625 0 
L 10.890625 47.703125 
L 2.296875 47.703125 
L 2.296875 54.6875 
L 10.890625 54.6875 
L 10.890625 58.5 
Q 10.890625 67.625 15.140625 71.796875 
Q 19.390625 75.984375 28.609375 75.984375 
z
" id="DejaVuSans-66"/>
     <path d="M 34.28125 27.484375 
Q 23.390625 27.484375 19.1875 25 
Q 14.984375 22.515625 14.984375 16.5 
Q 14.984375 11.71875 18.140625 8.90625 
Q 21.296875 6.109375 26.703125 6.109375 
Q 34.1875 6.109375 38.703125 11.40625 
Q 43.21875 16.703125 43.21875 25.484375 
L 43.21875 27.484375 
z
M 52.203125 31.203125 
L 52.203125 0 
L 43.21875 0 
L 43.21875 8.296875 
Q 40.140625 3.328125 35.546875 0.953125 
Q 30.953125 -1.421875 24.3125 -1.421875 
Q 15.921875 -1.421875 10.953125 3.296875 
Q 6 8.015625 6 15.921875 
Q 6 25.140625 12.171875 29.828125 
Q 18.359375 34.515625 30.609375 34.515625 
L 43.21875 34.515625 
L 43.21875 35.40625 
Q 43.21875 41.609375 39.140625 45 
Q 35.0625 48.390625 27.6875 48.390625 
Q 23 48.390625 18.546875 47.265625 
Q 14.109375 46.140625 10.015625 43.890625 
L 10.015625 52.203125 
Q 14.9375 54.109375 19.578125 55.046875 
Q 24.21875 56 28.609375 56 
Q 40.484375 56 46.34375 49.84375 
Q 52.203125 43.703125 52.203125 31.203125 
z
" id="DejaVuSans-61"/>
     <path d="M 48.78125 52.59375 
L 48.78125 44.1875 
Q 44.96875 46.296875 41.140625 47.34375 
Q 37.3125 48.390625 33.40625 48.390625 
Q 24.65625 48.390625 19.8125 42.84375 
Q 14.984375 37.3125 14.984375 27.296875 
Q 14.984375 17.28125 19.8125 11.734375 
Q 24.65625 6.203125 33.40625 6.203125 
Q 37.3125 6.203125 41.140625 7.25 
Q 44.96875 8.296875 48.78125 10.40625 
L 48.78125 2.09375 
Q 45.015625 0.34375 40.984375 -0.53125 
Q 36.96875 -1.421875 32.421875 -1.421875 
Q 20.0625 -1.421875 12.78125 6.34375 
Q 5.515625 14.109375 5.515625 27.296875 
Q 5.515625 40.671875 12.859375 48.328125 
Q 20.21875 56 33.015625 56 
Q 37.15625 56 41.109375 55.140625 
Q 45.0625 54.296875 48.78125 52.59375 
z
" id="DejaVuSans-63"/>
     <path d="M 9.421875 54.6875 
L 18.40625 54.6875 
L 18.40625 0 
L 9.421875 0 
z
M 9.421875 75.984375 
L 18.40625 75.984375 
L 18.40625 64.59375 
L 9.421875 64.59375 
z
" id="DejaVuSans-69"/>
     <path d="M 45.40625 27.984375 
Q 45.40625 37.75 41.375 43.109375 
Q 37.359375 48.484375 30.078125 48.484375 
Q 22.859375 48.484375 18.828125 43.109375 
Q 14.796875 37.75 14.796875 27.984375 
Q 14.796875 18.265625 18.828125 12.890625 
Q 22.859375 7.515625 30.078125 7.515625 
Q 37.359375 7.515625 41.375 12.890625 
Q 45.40625 18.265625 45.40625 27.984375 
z
M 54.390625 6.78125 
Q 54.390625 -7.171875 48.1875 -13.984375 
Q 42 -20.796875 29.203125 -20.796875 
Q 24.46875 -20.796875 20.265625 -20.09375 
Q 16.0625 -19.390625 12.109375 -17.921875 
L 12.109375 -9.1875 
Q 16.0625 -11.328125 19.921875 -12.34375 
Q 23.78125 -13.375 27.78125 -13.375 
Q 36.625 -13.375 41.015625 -8.765625 
Q 45.40625 -4.15625 45.40625 5.171875 
L 45.40625 9.625 
Q 42.625 4.78125 38.28125 2.390625 
Q 33.9375 0 27.875 0 
Q 17.828125 0 11.671875 7.65625 
Q 5.515625 15.328125 5.515625 27.984375 
Q 5.515625 40.671875 11.671875 48.328125 
Q 17.828125 56 27.875 56 
Q 33.9375 56 38.28125 53.609375 
Q 42.625 51.21875 45.40625 46.390625 
L 45.40625 54.6875 
L 54.390625 54.6875 
z
" id="DejaVuSans-67"/>
    </defs>
    <g transform="translate(147.148438 14.798438)scale(0.1 -0.1)">
     <use xlink:href="#DejaVuSans-6e"/>
     <use x="63.378906" xlink:href="#DejaVuSans-6f"/>
     <use x="124.560547" xlink:href="#DejaVuSans-20"/>
     <use x="156.347656" xlink:href="#DejaVuSans-73"/>
     <use x="208.447266" xlink:href="#DejaVuSans-75"/>
     <use x="271.826172" xlink:href="#DejaVuSans-72"/>
     <use x="312.939453" xlink:href="#DejaVuSans-66"/>
     <use x="348.144531" xlink:href="#DejaVuSans-61"/>
     <use x="409.423828" xlink:href="#DejaVuSans-63"/>
     <use x="464.404297" xlink:href="#DejaVuSans-69"/>
     <use x="492.1875" xlink:href="#DejaVuSans-6e"/>
     <use x="555.566406" xlink:href="#DejaVuSans-67"/>
    </g>
   </g>
   <g id="patch_4">
    <path d="M 102.077303 110.786823 
Q 139.137846 62.647967 176.880421 13.623204 
" style="fill:none;stroke:#000000;stroke-linecap:round;"/>
    <path d="M 106.102174 108.837358 
L 102.077303 110.786823 
L 102.932654 106.397248 
" style="fill:none;stroke:#000000;stroke-linecap:round;"/>
   </g>
   <g id="text_2">
    <g id="patch_5">
     <path d="M 86.671875 127.098125 
C 88.171875 128.598125 100.628125 128.598125 102.128125 127.098125 
C 103.628125 125.598125 103.628125 115.92 102.128125 114.42 
C 100.628125 112.92 88.171875 112.92 86.671875 114.42 
C 85.171875 115.92 85.171875 125.598125 86.671875 127.098125 
z
" style="fill:#cccccc;stroke:#000000;stroke-linejoin:miter;"/>
    </g>
    <!-- no -->
    <g transform="translate(88.171875 123.518438)scale(0.1 -0.1)">
     <use xlink:href="#DejaVuSans-6e"/>
     <use x="63.378906" xlink:href="#DejaVuSans-6f"/>
    </g>
   </g>
   <g id="text_3">
    <!-- 0 -->
    <defs>
     <path d="M 31.78125 66.40625 
Q 24.171875 66.40625 20.328125 58.90625 
Q 16.5 51.421875 16.5 36.375 
Q 16.5 21.390625 20.328125 13.890625 
Q 24.171875 6.390625 31.78125 6.390625 
Q 39.453125 6.390625 43.28125 13.890625 
Q 47.125 21.390625 47.125 36.375 
Q 47.125 51.421875 43.28125 58.90625 
Q 39.453125 66.40625 31.78125 66.40625 
z
M 31.78125 74.21875 
Q 44.046875 74.21875 50.515625 64.515625 
Q 56.984375 54.828125 56.984375 36.375 
Q 56.984375 17.96875 50.515625 8.265625 
Q 44.046875 -1.421875 31.78125 -1.421875 
Q 19.53125 -1.421875 13.0625 8.265625 
Q 6.59375 17.96875 6.59375 36.375 
Q 6.59375 54.828125 13.0625 64.515625 
Q 19.53125 74.21875 31.78125 74.21875 
z
" id="DejaVuSans-30"/>
    </defs>
    <g transform="translate(136.25 66.399063)scale(0.1 -0.1)">
     <use xlink:href="#DejaVuSans-30"/>
    </g>
   </g>
   <g id="text_4">
    <!-- 1 -->
    <defs>
     <path d="M 12.40625 8.296875 
L 28.515625 8.296875 
L 28.515625 63.921875 
L 10.984375 60.40625 
L 10.984375 69.390625 
L 28.421875 72.90625 
L 38.28125 72.90625 
L 38.28125 8.296875 
L 54.390625 8.296875 
L 54.390625 0 
L 12.40625 0 
z
" id="DejaVuSans-31"/>
    </defs>
    <g transform="translate(261.8 66.399063)scale(0.1 -0.1)">
     <use xlink:href="#DejaVuSans-31"/>
    </g>
   </g>
   <g id="patch_6">
    <path d="M 331.120702 111.420249 
Q 255.916666 62.578059 179.774992 13.126907 
" style="fill:none;stroke:#000000;stroke-linecap:round;"/>
    <path d="M 328.855446 107.564265 
L 331.120702 111.420249 
L 326.676761 110.918863 
" style="fill:none;stroke:#000000;stroke-linecap:round;"/>
   </g>
   <g id="text_5">
    <g id="patch_7">
     <path d="M 324.626562 127.848125 
L 325.376562 128.598125 
L 326.150541 127.848125 
L 326.924519 127.098125 
L 327.698498 127.848125 
L 328.472476 128.598125 
L 329.246454 127.848125 
L 330.020433 127.098125 
L 330.794411 127.848125 
L 331.568389 128.598125 
L 332.342368 127.848125 
L 333.116346 127.098125 
L 333.890325 127.848125 
L 334.664303 128.598125 
L 335.438281 127.848125 
L 336.21226 127.098125 
L 336.986238 127.848125 
L 337.760216 128.598125 
L 338.534195 127.848125 
L 339.308173 127.098125 
L 340.082151 127.848125 
L 340.85613 128.598125 
L 341.630108 127.848125 
L 342.404087 127.098125 
L 343.178065 127.848125 
L 343.952043 128.598125 
L 344.726022 127.848125 
L 345.5 127.098125 
L 346.273978 127.848125 
L 347.047957 128.598125 
L 347.821935 127.848125 
L 348.595913 127.098125 
L 349.369892 127.848125 
L 350.14387 128.598125 
L 350.917849 127.848125 
L 351.691827 127.098125 
L 352.465805 127.848125 
L 353.239784 128.598125 
L 354.013762 127.848125 
L 354.78774 127.098125 
L 355.561719 127.848125 
L 356.335697 128.598125 
L 357.109675 127.848125 
L 357.883654 127.098125 
L 358.657632 127.848125 
L 359.431611 128.598125 
L 360.205589 127.848125 
L 360.979567 127.098125 
L 361.753546 127.848125 
L 362.527524 128.598125 
L 363.301502 127.848125 
L 364.075481 127.098125 
L 364.849459 127.848125 
L 365.623437 128.598125 
L 366.373437 127.848125 
L 367.123437 127.098125 
L 366.373437 126.305742 
L 365.623437 125.513359 
L 366.373437 124.720977 
L 367.123437 123.928594 
L 366.373437 123.136211 
L 365.623437 122.343828 
L 366.373437 121.551445 
L 367.123437 120.759062 
L 366.373437 119.96668 
L 365.623437 119.174297 
L 366.373437 118.381914 
L 367.123437 117.589531 
L 366.373437 116.797148 
L 365.623437 116.004766 
L 366.373437 115.212383 
L 367.123437 114.42 
L 366.373437 113.67 
L 365.623437 112.92 
L 364.849459 113.67 
L 364.075481 114.42 
L 363.301502 113.67 
L 362.527524 112.92 
L 361.753546 113.67 
L 360.979567 114.42 
L 360.205589 113.67 
L 359.431611 112.92 
L 358.657632 113.67 
L 357.883654 114.42 
L 357.109675 113.67 
L 356.335697 112.92 
L 355.561719 113.67 
L 354.78774 114.42 
L 354.013762 113.67 
L 353.239784 112.92 
L 352.465805 113.67 
L 351.691827 114.42 
L 350.917849 113.67 
L 350.14387 112.92 
L 349.369892 113.67 
L 348.595913 114.42 
L 347.821935 113.67 
L 347.047957 112.92 
L 346.273978 113.67 
L 345.5 114.42 
L 344.726022 113.67 
L 343.952043 112.92 
L 343.178065 113.67 
L 342.404087 114.42 
L 341.630108 113.67 
L 340.85613 112.92 
L 340.082151 113.67 
L 339.308173 114.42 
L 338.534195 113.67 
L 337.760216 112.92 
L 336.986238 113.67 
L 336.21226 114.42 
L 335.438281 113.67 
L 334.664303 112.92 
L 333.890325 113.67 
L 333.116346 114.42 
L 332.342368 113.67 
L 331.568389 112.92 
L 330.794411 113.67 
L 330.020433 114.42 
L 329.246454 113.67 
L 328.472476 112.92 
L 327.698498 113.67 
L 326.924519 114.42 
L 326.150541 113.67 
L 325.376562 112.92 
L 324.626562 113.67 
L 323.876562 114.42 
L 324.626562 115.212383 
L 325.376562 116.004766 
L 324.626562 116.797148 
L 323.876562 117.589531 
L 324.626562 118.381914 
L 325.376562 119.174297 
L 324.626562 119.96668 
L 323.876562 120.759062 
L 324.626562 121.551445 
L 325.376562 122.343828 
L 324.626562 123.136211 
L 323.876562 123.928594 
L 324.626562 124.720977 
L 325.376562 125.513359 
L 324.626562 126.305742 
L 323.876562 127.098125 
z
" style="fill:#cccccc;stroke:#000000;stroke-linejoin:miter;"/>
    </g>
    <!-- flippers -->
    <defs>
     <path d="M 9.421875 75.984375 
L 18.40625 75.984375 
L 18.40625 0 
L 9.421875 0 
z
" id="DejaVuSans-6c"/>
     <path d="M 18.109375 8.203125 
L 18.109375 -20.796875 
L 9.078125 -20.796875 
L 9.078125 54.6875 
L 18.109375 54.6875 
L 18.109375 46.390625 
Q 20.953125 51.265625 25.265625 53.625 
Q 29.59375 56 35.59375 56 
Q 45.5625 56 51.78125 48.09375 
Q 58.015625 40.1875 58.015625 27.296875 
Q 58.015625 14.40625 51.78125 6.484375 
Q 45.5625 -1.421875 35.59375 -1.421875 
Q 29.59375 -1.421875 25.265625 0.953125 
Q 20.953125 3.328125 18.109375 8.203125 
z
M 48.6875 27.296875 
Q 48.6875 37.203125 44.609375 42.84375 
Q 40.53125 48.484375 33.40625 48.484375 
Q 26.265625 48.484375 22.1875 42.84375 
Q 18.109375 37.203125 18.109375 27.296875 
Q 18.109375 17.390625 22.1875 11.75 
Q 26.265625 6.109375 33.40625 6.109375 
Q 40.53125 6.109375 44.609375 11.75 
Q 48.6875 17.390625 48.6875 27.296875 
z
" id="DejaVuSans-70"/>
     <path d="M 56.203125 29.59375 
L 56.203125 25.203125 
L 14.890625 25.203125 
Q 15.484375 15.921875 20.484375 11.0625 
Q 25.484375 6.203125 34.421875 6.203125 
Q 39.59375 6.203125 44.453125 7.46875 
Q 49.3125 8.734375 54.109375 11.28125 
L 54.109375 2.78125 
Q 49.265625 0.734375 44.1875 -0.34375 
Q 39.109375 -1.421875 33.890625 -1.421875 
Q 20.796875 -1.421875 13.15625 6.1875 
Q 5.515625 13.8125 5.515625 26.8125 
Q 5.515625 40.234375 12.765625 48.109375 
Q 20.015625 56 32.328125 56 
Q 43.359375 56 49.78125 48.890625 
Q 56.203125 41.796875 56.203125 29.59375 
z
M 47.21875 32.234375 
Q 47.125 39.59375 43.09375 43.984375 
Q 39.0625 48.390625 32.421875 48.390625 
Q 24.90625 48.390625 20.390625 44.140625 
Q 15.875 39.890625 15.1875 32.171875 
z
" id="DejaVuSans-65"/>
    </defs>
    <g transform="translate(326.876562 123.518438)scale(0.1 -0.1)">
     <use xlink:href="#DejaVuSans-66"/>
     <use x="35.205078" xlink:href="#DejaVuSans-6c"/>
     <use x="62.988281" xlink:href="#DejaVuSans-69"/>
     <use x="90.771484" xlink:href="#DejaVuSans-70"/>
     <use x="154.248047" xlink:href="#DejaVuSans-70"/>
     <use x="217.724609" xlink:href="#DejaVuSans-65"/>
     <use x="279.248047" xlink:href="#DejaVuSans-72"/>
     <use x="320.361328" xlink:href="#DejaVuSans-73"/>
    </g>
   </g>
   <g id="patch_8">
    <path d="M 269.477303 219.506823 
Q 306.537846 171.367967 344.280421 122.343204 
" style="fill:none;stroke:#000000;stroke-linecap:round;"/>
    <path d="M 273.502174 217.557358 
L 269.477303 219.506823 
L 270.332654 215.117248 
" style="fill:none;stroke:#000000;stroke-linecap:round;"/>
   </g>
   <g id="text_6">
    <g id="patch_9">
     <path d="M 254.071875 235.818125 
C 255.571875 237.318125 268.028125 237.318125 269.528125 235.818125 
C 271.028125 234.318125 271.028125 224.64 269.528125 223.14 
C 268.028125 221.64 255.571875 221.64 254.071875 223.14 
C 252.571875 224.64 252.571875 234.318125 254.071875 235.818125 
z
" style="fill:#cccccc;stroke:#000000;stroke-linejoin:miter;"/>
    </g>
    <!-- no -->
    <g transform="translate(255.571875 232.238438)scale(0.1 -0.1)">
     <use xlink:href="#DejaVuSans-6e"/>
     <use x="63.378906" xlink:href="#DejaVuSans-6f"/>
    </g>
   </g>
   <g id="text_7">
    <!-- 0 -->
    <g transform="translate(303.65 175.119062)scale(0.1 -0.1)">
     <use xlink:href="#DejaVuSans-30"/>
    </g>
   </g>
   <g id="patch_10">
    <path d="M 421.362062 219.29817 
Q 384.382895 171.265017 346.721697 122.345955 
" style="fill:none;stroke:#000000;stroke-linecap:round;"/>
    <path d="M 420.506711 214.908595 
L 421.362062 219.29817 
L 417.337191 217.348706 
" style="fill:none;stroke:#000000;stroke-linecap:round;"/>
   </g>
   <g id="text_8">
    <g id="patch_11">
     <path d="M 419.059375 235.818125 
C 420.559375 237.318125 437.840625 237.318125 439.340625 235.818125 
C 440.840625 234.318125 440.840625 224.64 439.340625 223.14 
C 437.840625 221.64 420.559375 221.64 419.059375 223.14 
C 417.559375 224.64 417.559375 234.318125 419.059375 235.818125 
z
" style="fill:#cccccc;stroke:#000000;stroke-linejoin:miter;"/>
    </g>
    <!-- yes -->
    <defs>
     <path d="M 32.171875 -5.078125 
Q 28.375 -14.84375 24.75 -17.8125 
Q 21.140625 -20.796875 15.09375 -20.796875 
L 7.90625 -20.796875 
L 7.90625 -13.28125 
L 13.1875 -13.28125 
Q 16.890625 -13.28125 18.9375 -11.515625 
Q 21 -9.765625 23.484375 -3.21875 
L 25.09375 0.875 
L 2.984375 54.6875 
L 12.5 54.6875 
L 29.59375 11.921875 
L 46.6875 54.6875 
L 56.203125 54.6875 
z
" id="DejaVuSans-79"/>
    </defs>
    <g transform="translate(420.559375 232.238438)scale(0.1 -0.1)">
     <use xlink:href="#DejaVuSans-79"/>
     <use x="59.179688" xlink:href="#DejaVuSans-65"/>
     <use x="120.703125" xlink:href="#DejaVuSans-73"/>
    </g>
   </g>
   <g id="text_9">
    <!-- 1 -->
    <g transform="translate(387.35 175.119062)scale(0.1 -0.1)">
     <use xlink:href="#DejaVuSans-31"/>
    </g>
   </g>
  </g>
 </g>
</svg>
