<?xml version="1.0" encoding="utf-8" standalone="no"?>
<!DOCTYPE svg PUBLIC "-//W3C//DTD SVG 1.1//EN"
  "http://www.w3.org/Graphics/SVG/1.1/DTD/svg11.dtd">
<!-- Created with matplotlib (http://matplotlib.org/) -->
<svg height="252pt" version="1.1" viewBox="0 0 383 252" width="383pt" xmlns="http://www.w3.org/2000/svg" xmlns:xlink="http://www.w3.org/1999/xlink">
 <defs>
  <style type="text/css">
*{stroke-linecap:butt;stroke-linejoin:round;}
  </style>
 </defs>
 <g id="figure_1">
  <g id="patch_1">
   <path d="M -0 252.018125 
L 383.982812 252.018125 
L 383.982812 0 
L -0 0 
z
" style="fill:none;"/>
  </g>
  <g id="axes_1">
   <g id="patch_2">
    <path d="M 38.482813 228.14 
L 373.282813 228.14 
L 373.282813 10.7 
L 38.482813 10.7 
z
" style="fill:#ffffff;"/>
   </g>
   <g id="PathCollection_1">
    <defs>
     <path d="M -2.738613 2.738613 
L 2.738613 2.738613 
L 2.738613 -2.738613 
L -2.738613 -2.738613 
z
" id="me327338916" style="stroke:#ff0000;"/>
    </defs>
    <g clip-path="url(#p794357a48a)">
     <use style="fill:#ff0000;stroke:#ff0000;" x="156.602843" xlink:href="#me327338916" y="132.421825"/>
     <use style="fill:#ff0000;stroke:#ff0000;" x="238.865011" xlink:href="#me327338916" y="106.150505"/>
     <use style="fill:#ff0000;stroke:#ff0000;" x="108.016288" xlink:href="#me327338916" y="108.341208"/>
     <use style="fill:#ff0000;stroke:#ff0000;" x="259.117655" xlink:href="#me327338916" y="107.756427"/>
     <use style="fill:#ff0000;stroke:#ff0000;" x="274.014265" xlink:href="#me327338916" y="148.759736"/>
     <use style="fill:#ff0000;stroke:#ff0000;" x="194.441273" xlink:href="#me327338916" y="120.552704"/>
     <use style="fill:#ff0000;stroke:#ff0000;" x="262.82387" xlink:href="#me327338916" y="165.993395"/>
     <use style="fill:#ff0000;stroke:#ff0000;" x="219.197496" xlink:href="#me327338916" y="116.152072"/>
     <use style="fill:#ff0000;stroke:#ff0000;" x="218.638474" xlink:href="#me327338916" y="153.960177"/>
     <use style="fill:#ff0000;stroke:#ff0000;" x="211.313128" xlink:href="#me327338916" y="178.505732"/>
     <use style="fill:#ff0000;stroke:#ff0000;" x="266.604116" xlink:href="#me327338916" y="120.493755"/>
     <use style="fill:#ff0000;stroke:#ff0000;" x="310.915073" xlink:href="#me327338916" y="148.064945"/>
     <use style="fill:#ff0000;stroke:#ff0000;" x="143.009812" xlink:href="#me327338916" y="189.44892"/>
     <use style="fill:#ff0000;stroke:#ff0000;" x="204.473139" xlink:href="#me327338916" y="201.697429"/>
     <use style="fill:#ff0000;stroke:#ff0000;" x="123.336729" xlink:href="#me327338916" y="154.162467"/>
     <use style="fill:#ff0000;stroke:#ff0000;" x="54.074338" xlink:href="#me327338916" y="201.034931"/>
     <use style="fill:#ff0000;stroke:#ff0000;" x="234.724421" xlink:href="#me327338916" y="144.860399"/>
     <use style="fill:#ff0000;stroke:#ff0000;" x="202.669735" xlink:href="#me327338916" y="139.77684"/>
     <use style="fill:#ff0000;stroke:#ff0000;" x="245.721203" xlink:href="#me327338916" y="92.738978"/>
     <use style="fill:#ff0000;stroke:#ff0000;" x="158.785941" xlink:href="#me327338916" y="209.643092"/>
     <use style="fill:#ff0000;stroke:#ff0000;" x="274.917564" xlink:href="#me327338916" y="129.26124"/>
     <use style="fill:#ff0000;stroke:#ff0000;" x="199.960659" xlink:href="#me327338916" y="147.336451"/>
     <use style="fill:#ff0000;stroke:#ff0000;" x="267.871273" xlink:href="#me327338916" y="116.6619"/>
     <use style="fill:#ff0000;stroke:#ff0000;" x="272.88554" xlink:href="#me327338916" y="177.366279"/>
     <use style="fill:#ff0000;stroke:#ff0000;" x="258.118142" xlink:href="#me327338916" y="154.123422"/>
     <use style="fill:#ff0000;stroke:#ff0000;" x="189.10304" xlink:href="#me327338916" y="207.022006"/>
     <use style="fill:#ff0000;stroke:#ff0000;" x="230.775072" xlink:href="#me327338916" y="118.663465"/>
     <use style="fill:#ff0000;stroke:#ff0000;" x="289.097322" xlink:href="#me327338916" y="128.43081"/>
     <use style="fill:#ff0000;stroke:#ff0000;" x="224.851435" xlink:href="#me327338916" y="108.679497"/>
     <use style="fill:#ff0000;stroke:#ff0000;" x="301.815443" xlink:href="#me327338916" y="99.035229"/>
     <use style="fill:#ff0000;stroke:#ff0000;" x="203.688189" xlink:href="#me327338916" y="131.49587"/>
     <use style="fill:#ff0000;stroke:#ff0000;" x="181.88445" xlink:href="#me327338916" y="138.358865"/>
     <use style="fill:#ff0000;stroke:#ff0000;" x="242.686244" xlink:href="#me327338916" y="161.940012"/>
     <use style="fill:#ff0000;stroke:#ff0000;" x="183.29474" xlink:href="#me327338916" y="199.373644"/>
     <use style="fill:#ff0000;stroke:#ff0000;" x="335.811782" xlink:href="#me327338916" y="112.60183"/>
     <use style="fill:#ff0000;stroke:#ff0000;" x="159.257468" xlink:href="#me327338916" y="178.241642"/>
     <use style="fill:#ff0000;stroke:#ff0000;" x="213.578109" xlink:href="#me327338916" y="151.951609"/>
     <use style="fill:#ff0000;stroke:#ff0000;" x="144.624029" xlink:href="#me327338916" y="183.655789"/>
     <use style="fill:#ff0000;stroke:#ff0000;" x="280.547039" xlink:href="#me327338916" y="159.638327"/>
     <use style="fill:#ff0000;stroke:#ff0000;" x="314.151907" xlink:href="#me327338916" y="128.51695"/>
     <use style="fill:#ff0000;stroke:#ff0000;" x="181.432093" xlink:href="#me327338916" y="135.555535"/>
     <use style="fill:#ff0000;stroke:#ff0000;" x="171.162479" xlink:href="#me327338916" y="218.118771"/>
     <use style="fill:#ff0000;stroke:#ff0000;" x="357.691287" xlink:href="#me327338916" y="91.572432"/>
     <use style="fill:#ff0000;stroke:#ff0000;" x="170.120884" xlink:href="#me327338916" y="164.914387"/>
     <use style="fill:#ff0000;stroke:#ff0000;" x="182.197097" xlink:href="#me327338916" y="202.299799"/>
     <use style="fill:#ff0000;stroke:#ff0000;" x="181.66012" xlink:href="#me327338916" y="141.308584"/>
     <use style="fill:#ff0000;stroke:#ff0000;" x="300.305335" xlink:href="#me327338916" y="123.620725"/>
     <use style="fill:#ff0000;stroke:#ff0000;" x="223.887751" xlink:href="#me327338916" y="182.705451"/>
     <use style="fill:#ff0000;stroke:#ff0000;" x="224.382282" xlink:href="#me327338916" y="191.172379"/>
     <use style="fill:#ff0000;stroke:#ff0000;" x="226.058481" xlink:href="#me327338916" y="173.282197"/>
     <use style="fill:#ff0000;stroke:#ff0000;" x="189.275018" xlink:href="#me327338916" y="170.024285"/>
     <use style="fill:#ff0000;stroke:#ff0000;" x="251.246705" xlink:href="#me327338916" y="155.427586"/>
     <use style="fill:#ff0000;stroke:#ff0000;" x="121.314472" xlink:href="#me327338916" y="181.788924"/>
    </g>
   </g>
   <g id="PathCollection_2">
    <defs>
     <path d="M 0 2.738613 
C 0.726289 2.738613 1.422928 2.450055 1.936492 1.936492 
C 2.450055 1.422928 2.738613 0.726289 2.738613 0 
C 2.738613 -0.726289 2.450055 -1.422928 1.936492 -1.936492 
C 1.422928 -2.450055 0.726289 -2.738613 0 -2.738613 
C -0.726289 -2.738613 -1.422928 -2.450055 -1.936492 -1.936492 
C -2.450055 -1.422928 -2.738613 -0.726289 -2.738613 0 
C -2.738613 0.726289 -2.450055 1.422928 -1.936492 1.936492 
C -1.422928 2.450055 -0.726289 2.738613 0 2.738613 
z
" id="m2607b1dc73" style="stroke:#008000;"/>
    </defs>
    <g clip-path="url(#p794357a48a)">
     <use style="fill:#008000;stroke:#008000;" x="219.498414" xlink:href="#m2607b1dc73" y="29.83448"/>
     <use style="fill:#008000;stroke:#008000;" x="185.972369" xlink:href="#m2607b1dc73" y="111.926485"/>
     <use style="fill:#008000;stroke:#008000;" x="159.946707" xlink:href="#m2607b1dc73" y="105.216259"/>
     <use style="fill:#008000;stroke:#008000;" x="239.62536" xlink:href="#m2607b1dc73" y="62.590543"/>
     <use style="fill:#008000;stroke:#008000;" x="250.763403" xlink:href="#m2607b1dc73" y="44.163266"/>
     <use style="fill:#008000;stroke:#008000;" x="246.291271" xlink:href="#m2607b1dc73" y="79.04208"/>
     <use style="fill:#008000;stroke:#008000;" x="219.086723" xlink:href="#m2607b1dc73" y="69.439522"/>
     <use style="fill:#008000;stroke:#008000;" x="281.790279" xlink:href="#m2607b1dc73" y="39.421482"/>
     <use style="fill:#008000;stroke:#008000;" x="138.974244" xlink:href="#m2607b1dc73" y="83.966894"/>
     <use style="fill:#008000;stroke:#008000;" x="193.988551" xlink:href="#m2607b1dc73" y="54.678484"/>
     <use style="fill:#008000;stroke:#008000;" x="275.890285" xlink:href="#m2607b1dc73" y="78.514861"/>
     <use style="fill:#008000;stroke:#008000;" x="186.804376" xlink:href="#m2607b1dc73" y="83.958876"/>
     <use style="fill:#008000;stroke:#008000;" x="284.959243" xlink:href="#m2607b1dc73" y="78.27215"/>
     <use style="fill:#008000;stroke:#008000;" x="276.207359" xlink:href="#m2607b1dc73" y="56.771215"/>
     <use style="fill:#008000;stroke:#008000;" x="232.863874" xlink:href="#m2607b1dc73" y="79.097883"/>
     <use style="fill:#008000;stroke:#008000;" x="241.780206" xlink:href="#m2607b1dc73" y="81.404702"/>
     <use style="fill:#008000;stroke:#008000;" x="134.058792" xlink:href="#m2607b1dc73" y="79.108643"/>
     <use style="fill:#008000;stroke:#008000;" x="150.566288" xlink:href="#m2607b1dc73" y="50.618294"/>
     <use style="fill:#008000;stroke:#008000;" x="166.20531" xlink:href="#m2607b1dc73" y="59.808702"/>
     <use style="fill:#008000;stroke:#008000;" x="192.059632" xlink:href="#m2607b1dc73" y="70.605795"/>
     <use style="fill:#008000;stroke:#008000;" x="163.809976" xlink:href="#m2607b1dc73" y="68.114482"/>
     <use style="fill:#008000;stroke:#008000;" x="176.491264" xlink:href="#m2607b1dc73" y="57.121063"/>
     <use style="fill:#008000;stroke:#008000;" x="242.799664" xlink:href="#m2607b1dc73" y="63.260797"/>
     <use style="fill:#008000;stroke:#008000;" x="228.745649" xlink:href="#m2607b1dc73" y="88.079609"/>
     <use style="fill:#008000;stroke:#008000;" x="204.066743" xlink:href="#m2607b1dc73" y="70.551282"/>
     <use style="fill:#008000;stroke:#008000;" x="202.144899" xlink:href="#m2607b1dc73" y="95.323588"/>
     <use style="fill:#008000;stroke:#008000;" x="257.949495" xlink:href="#m2607b1dc73" y="33.360065"/>
     <use style="fill:#008000;stroke:#008000;" x="204.601073" xlink:href="#m2607b1dc73" y="66.274218"/>
     <use style="fill:#008000;stroke:#008000;" x="178.366417" xlink:href="#m2607b1dc73" y="57.06774"/>
     <use style="fill:#008000;stroke:#008000;" x="219.973911" xlink:href="#m2607b1dc73" y="84.208993"/>
     <use style="fill:#008000;stroke:#008000;" x="236.555667" xlink:href="#m2607b1dc73" y="47.370597"/>
     <use style="fill:#008000;stroke:#008000;" x="235.938177" xlink:href="#m2607b1dc73" y="49.191732"/>
     <use style="fill:#008000;stroke:#008000;" x="279.485362" xlink:href="#m2607b1dc73" y="56.550549"/>
     <use style="fill:#008000;stroke:#008000;" x="242.004399" xlink:href="#m2607b1dc73" y="51.825939"/>
     <use style="fill:#008000;stroke:#008000;" x="184.551992" xlink:href="#m2607b1dc73" y="63.081624"/>
     <use style="fill:#008000;stroke:#008000;" x="223.716184" xlink:href="#m2607b1dc73" y="62.929499"/>
     <use style="fill:#008000;stroke:#008000;" x="215.611137" xlink:href="#m2607b1dc73" y="32.99619"/>
     <use style="fill:#008000;stroke:#008000;" x="243.962529" xlink:href="#m2607b1dc73" y="75.34652"/>
     <use style="fill:#008000;stroke:#008000;" x="266.64702" xlink:href="#m2607b1dc73" y="100.638551"/>
     <use style="fill:#008000;stroke:#008000;" x="151.380814" xlink:href="#m2607b1dc73" y="117.133437"/>
     <use style="fill:#008000;stroke:#008000;" x="303.420578" xlink:href="#m2607b1dc73" y="71.00996"/>
     <use style="fill:#008000;stroke:#008000;" x="284.205604" xlink:href="#m2607b1dc73" y="45.394147"/>
     <use style="fill:#008000;stroke:#008000;" x="303.628979" xlink:href="#m2607b1dc73" y="44.683756"/>
     <use style="fill:#008000;stroke:#008000;" x="229.314028" xlink:href="#m2607b1dc73" y="76.902144"/>
     <use style="fill:#008000;stroke:#008000;" x="255.05169" xlink:href="#m2607b1dc73" y="66.532288"/>
     <use style="fill:#008000;stroke:#008000;" x="283.681087" xlink:href="#m2607b1dc73" y="81.300821"/>
     <use style="fill:#008000;stroke:#008000;" x="234.772072" xlink:href="#m2607b1dc73" y="22.340657"/>
    </g>
   </g>
   <g id="matplotlib.axis_1">
    <g id="xtick_1">
     <g id="line2d_1">
      <defs>
       <path d="M 0 0 
L 0 3.5 
" id="md4702fef2a" style="stroke:#000000;stroke-width:0.8;"/>
      </defs>
      <g>
       <use style="stroke:#000000;stroke-width:0.8;" x="83.376497" xlink:href="#md4702fef2a" y="228.14"/>
      </g>
     </g>
     <g id="text_1">
      <!-- −3 -->
      <defs>
       <path d="M 10.59375 35.5 
L 73.1875 35.5 
L 73.1875 27.203125 
L 10.59375 27.203125 
z
" id="DejaVuSans-2212"/>
       <path d="M 40.578125 39.3125 
Q 47.65625 37.796875 51.625 33 
Q 55.609375 28.21875 55.609375 21.1875 
Q 55.609375 10.40625 48.1875 4.484375 
Q 40.765625 -1.421875 27.09375 -1.421875 
Q 22.515625 -1.421875 17.65625 -0.515625 
Q 12.796875 0.390625 7.625 2.203125 
L 7.625 11.71875 
Q 11.71875 9.328125 16.59375 8.109375 
Q 21.484375 6.890625 26.8125 6.890625 
Q 36.078125 6.890625 40.9375 10.546875 
Q 45.796875 14.203125 45.796875 21.1875 
Q 45.796875 27.640625 41.28125 31.265625 
Q 36.765625 34.90625 28.71875 34.90625 
L 20.21875 34.90625 
L 20.21875 43.015625 
L 29.109375 43.015625 
Q 36.375 43.015625 40.234375 45.921875 
Q 44.09375 48.828125 44.09375 54.296875 
Q 44.09375 59.90625 40.109375 62.90625 
Q 36.140625 65.921875 28.71875 65.921875 
Q 24.65625 65.921875 20.015625 65.03125 
Q 15.375 64.15625 9.8125 62.3125 
L 9.8125 71.09375 
Q 15.4375 72.65625 20.34375 73.4375 
Q 25.25 74.21875 29.59375 74.21875 
Q 40.828125 74.21875 47.359375 69.109375 
Q 53.90625 64.015625 53.90625 55.328125 
Q 53.90625 49.265625 50.4375 45.09375 
Q 46.96875 40.921875 40.578125 39.3125 
z
" id="DejaVuSans-33"/>
      </defs>
      <g transform="translate(76.005403 242.738437)scale(0.1 -0.1)">
       <use xlink:href="#DejaVuSans-2212"/>
       <use x="83.789062" xlink:href="#DejaVuSans-33"/>
      </g>
     </g>
    </g>
    <g id="xtick_2">
     <g id="line2d_2">
      <g>
       <use style="stroke:#000000;stroke-width:0.8;" x="129.018418" xlink:href="#md4702fef2a" y="228.14"/>
      </g>
     </g>
     <g id="text_2">
      <!-- −2 -->
      <defs>
       <path d="M 19.1875 8.296875 
L 53.609375 8.296875 
L 53.609375 0 
L 7.328125 0 
L 7.328125 8.296875 
Q 12.9375 14.109375 22.625 23.890625 
Q 32.328125 33.6875 34.8125 36.53125 
Q 39.546875 41.84375 41.421875 45.53125 
Q 43.3125 49.21875 43.3125 52.78125 
Q 43.3125 58.59375 39.234375 62.25 
Q 35.15625 65.921875 28.609375 65.921875 
Q 23.96875 65.921875 18.8125 64.3125 
Q 13.671875 62.703125 7.8125 59.421875 
L 7.8125 69.390625 
Q 13.765625 71.78125 18.9375 73 
Q 24.125 74.21875 28.421875 74.21875 
Q 39.75 74.21875 46.484375 68.546875 
Q 53.21875 62.890625 53.21875 53.421875 
Q 53.21875 48.921875 51.53125 44.890625 
Q 49.859375 40.875 45.40625 35.40625 
Q 44.1875 33.984375 37.640625 27.21875 
Q 31.109375 20.453125 19.1875 8.296875 
z
" id="DejaVuSans-32"/>
      </defs>
      <g transform="translate(121.647324 242.738437)scale(0.1 -0.1)">
       <use xlink:href="#DejaVuSans-2212"/>
       <use x="83.789062" xlink:href="#DejaVuSans-32"/>
      </g>
     </g>
    </g>
    <g id="xtick_3">
     <g id="line2d_3">
      <g>
       <use style="stroke:#000000;stroke-width:0.8;" x="174.660338" xlink:href="#md4702fef2a" y="228.14"/>
      </g>
     </g>
     <g id="text_3">
      <!-- −1 -->
      <defs>
       <path d="M 12.40625 8.296875 
L 28.515625 8.296875 
L 28.515625 63.921875 
L 10.984375 60.40625 
L 10.984375 69.390625 
L 28.421875 72.90625 
L 38.28125 72.90625 
L 38.28125 8.296875 
L 54.390625 8.296875 
L 54.390625 0 
L 12.40625 0 
z
" id="DejaVuSans-31"/>
      </defs>
      <g transform="translate(167.289245 242.738437)scale(0.1 -0.1)">
       <use xlink:href="#DejaVuSans-2212"/>
       <use x="83.789062" xlink:href="#DejaVuSans-31"/>
      </g>
     </g>
    </g>
    <g id="xtick_4">
     <g id="line2d_4">
      <g>
       <use style="stroke:#000000;stroke-width:0.8;" x="220.302259" xlink:href="#md4702fef2a" y="228.14"/>
      </g>
     </g>
     <g id="text_4">
      <!-- 0 -->
      <defs>
       <path d="M 31.78125 66.40625 
Q 24.171875 66.40625 20.328125 58.90625 
Q 16.5 51.421875 16.5 36.375 
Q 16.5 21.390625 20.328125 13.890625 
Q 24.171875 6.390625 31.78125 6.390625 
Q 39.453125 6.390625 43.28125 13.890625 
Q 47.125 21.390625 47.125 36.375 
Q 47.125 51.421875 43.28125 58.90625 
Q 39.453125 66.40625 31.78125 66.40625 
z
M 31.78125 74.21875 
Q 44.046875 74.21875 50.515625 64.515625 
Q 56.984375 54.828125 56.984375 36.375 
Q 56.984375 17.96875 50.515625 8.265625 
Q 44.046875 -1.421875 31.78125 -1.421875 
Q 19.53125 -1.421875 13.0625 8.265625 
Q 6.59375 17.96875 6.59375 36.375 
Q 6.59375 54.828125 13.0625 64.515625 
Q 19.53125 74.21875 31.78125 74.21875 
z
" id="DejaVuSans-30"/>
      </defs>
      <g transform="translate(217.121009 242.738437)scale(0.1 -0.1)">
       <use xlink:href="#DejaVuSans-30"/>
      </g>
     </g>
    </g>
    <g id="xtick_5">
     <g id="line2d_5">
      <g>
       <use style="stroke:#000000;stroke-width:0.8;" x="265.94418" xlink:href="#md4702fef2a" y="228.14"/>
      </g>
     </g>
     <g id="text_5">
      <!-- 1 -->
      <g transform="translate(262.76293 242.738437)scale(0.1 -0.1)">
       <use xlink:href="#DejaVuSans-31"/>
      </g>
     </g>
    </g>
    <g id="xtick_6">
     <g id="line2d_6">
      <g>
       <use style="stroke:#000000;stroke-width:0.8;" x="311.586101" xlink:href="#md4702fef2a" y="228.14"/>
      </g>
     </g>
     <g id="text_6">
      <!-- 2 -->
      <g transform="translate(308.404851 242.738437)scale(0.1 -0.1)">
       <use xlink:href="#DejaVuSans-32"/>
      </g>
     </g>
    </g>
    <g id="xtick_7">
     <g id="line2d_7">
      <g>
       <use style="stroke:#000000;stroke-width:0.8;" x="357.228021" xlink:href="#md4702fef2a" y="228.14"/>
      </g>
     </g>
     <g id="text_7">
      <!-- 3 -->
      <g transform="translate(354.046771 242.738437)scale(0.1 -0.1)">
       <use xlink:href="#DejaVuSans-33"/>
      </g>
     </g>
    </g>
   </g>
   <g id="matplotlib.axis_2">
    <g id="ytick_1">
     <g id="line2d_8">
      <defs>
       <path d="M 0 0 
L -3.5 0 
" id="me7eb9bfc60" style="stroke:#000000;stroke-width:0.8;"/>
      </defs>
      <g>
       <use style="stroke:#000000;stroke-width:0.8;" x="38.482813" xlink:href="#me7eb9bfc60" y="210.669444"/>
      </g>
     </g>
     <g id="text_8">
      <!-- −2.5 -->
      <defs>
       <path d="M 10.6875 12.40625 
L 21 12.40625 
L 21 0 
L 10.6875 0 
z
" id="DejaVuSans-2e"/>
       <path d="M 10.796875 72.90625 
L 49.515625 72.90625 
L 49.515625 64.59375 
L 19.828125 64.59375 
L 19.828125 46.734375 
Q 21.96875 47.46875 24.109375 47.828125 
Q 26.265625 48.1875 28.421875 48.1875 
Q 40.625 48.1875 47.75 41.5 
Q 54.890625 34.8125 54.890625 23.390625 
Q 54.890625 11.625 47.5625 5.09375 
Q 40.234375 -1.421875 26.90625 -1.421875 
Q 22.3125 -1.421875 17.546875 -0.640625 
Q 12.796875 0.140625 7.71875 1.703125 
L 7.71875 11.625 
Q 12.109375 9.234375 16.796875 8.0625 
Q 21.484375 6.890625 26.703125 6.890625 
Q 35.15625 6.890625 40.078125 11.328125 
Q 45.015625 15.765625 45.015625 23.390625 
Q 45.015625 31 40.078125 35.4375 
Q 35.15625 39.890625 26.703125 39.890625 
Q 22.75 39.890625 18.8125 39.015625 
Q 14.890625 38.140625 10.796875 36.28125 
z
" id="DejaVuSans-35"/>
      </defs>
      <g transform="translate(7.2 214.468662)scale(0.1 -0.1)">
       <use xlink:href="#DejaVuSans-2212"/>
       <use x="83.789062" xlink:href="#DejaVuSans-32"/>
       <use x="147.412109" xlink:href="#DejaVuSans-2e"/>
       <use x="179.199219" xlink:href="#DejaVuSans-35"/>
      </g>
     </g>
    </g>
    <g id="ytick_2">
     <g id="line2d_9">
      <g>
       <use style="stroke:#000000;stroke-width:0.8;" x="38.482813" xlink:href="#me7eb9bfc60" y="183.35804"/>
      </g>
     </g>
     <g id="text_9">
      <!-- 0.0 -->
      <g transform="translate(15.579688 187.157259)scale(0.1 -0.1)">
       <use xlink:href="#DejaVuSans-30"/>
       <use x="63.623047" xlink:href="#DejaVuSans-2e"/>
       <use x="95.410156" xlink:href="#DejaVuSans-30"/>
      </g>
     </g>
    </g>
    <g id="ytick_3">
     <g id="line2d_10">
      <g>
       <use style="stroke:#000000;stroke-width:0.8;" x="38.482813" xlink:href="#me7eb9bfc60" y="156.046637"/>
      </g>
     </g>
     <g id="text_10">
      <!-- 2.5 -->
      <g transform="translate(15.579688 159.845856)scale(0.1 -0.1)">
       <use xlink:href="#DejaVuSans-32"/>
       <use x="63.623047" xlink:href="#DejaVuSans-2e"/>
       <use x="95.410156" xlink:href="#DejaVuSans-35"/>
      </g>
     </g>
    </g>
    <g id="ytick_4">
     <g id="line2d_11">
      <g>
       <use style="stroke:#000000;stroke-width:0.8;" x="38.482813" xlink:href="#me7eb9bfc60" y="128.735233"/>
      </g>
     </g>
     <g id="text_11">
      <!-- 5.0 -->
      <g transform="translate(15.579688 132.534452)scale(0.1 -0.1)">
       <use xlink:href="#DejaVuSans-35"/>
       <use x="63.623047" xlink:href="#DejaVuSans-2e"/>
       <use x="95.410156" xlink:href="#DejaVuSans-30"/>
      </g>
     </g>
    </g>
    <g id="ytick_5">
     <g id="line2d_12">
      <g>
       <use style="stroke:#000000;stroke-width:0.8;" x="38.482813" xlink:href="#me7eb9bfc60" y="101.42383"/>
      </g>
     </g>
     <g id="text_12">
      <!-- 7.5 -->
      <defs>
       <path d="M 8.203125 72.90625 
L 55.078125 72.90625 
L 55.078125 68.703125 
L 28.609375 0 
L 18.3125 0 
L 43.21875 64.59375 
L 8.203125 64.59375 
z
" id="DejaVuSans-37"/>
      </defs>
      <g transform="translate(15.579688 105.223049)scale(0.1 -0.1)">
       <use xlink:href="#DejaVuSans-37"/>
       <use x="63.623047" xlink:href="#DejaVuSans-2e"/>
       <use x="95.410156" xlink:href="#DejaVuSans-35"/>
      </g>
     </g>
    </g>
    <g id="ytick_6">
     <g id="line2d_13">
      <g>
       <use style="stroke:#000000;stroke-width:0.8;" x="38.482813" xlink:href="#me7eb9bfc60" y="74.112426"/>
      </g>
     </g>
     <g id="text_13">
      <!-- 10.0 -->
      <g transform="translate(9.217188 77.911645)scale(0.1 -0.1)">
       <use xlink:href="#DejaVuSans-31"/>
       <use x="63.623047" xlink:href="#DejaVuSans-30"/>
       <use x="127.246094" xlink:href="#DejaVuSans-2e"/>
       <use x="159.033203" xlink:href="#DejaVuSans-30"/>
      </g>
     </g>
    </g>
    <g id="ytick_7">
     <g id="line2d_14">
      <g>
       <use style="stroke:#000000;stroke-width:0.8;" x="38.482813" xlink:href="#me7eb9bfc60" y="46.801023"/>
      </g>
     </g>
     <g id="text_14">
      <!-- 12.5 -->
      <g transform="translate(9.217188 50.600242)scale(0.1 -0.1)">
       <use xlink:href="#DejaVuSans-31"/>
       <use x="63.623047" xlink:href="#DejaVuSans-32"/>
       <use x="127.246094" xlink:href="#DejaVuSans-2e"/>
       <use x="159.033203" xlink:href="#DejaVuSans-35"/>
      </g>
     </g>
    </g>
    <g id="ytick_8">
     <g id="line2d_15">
      <g>
       <use style="stroke:#000000;stroke-width:0.8;" x="38.482813" xlink:href="#me7eb9bfc60" y="19.48962"/>
      </g>
     </g>
     <g id="text_15">
      <!-- 15.0 -->
      <g transform="translate(9.217188 23.288838)scale(0.1 -0.1)">
       <use xlink:href="#DejaVuSans-31"/>
       <use x="63.623047" xlink:href="#DejaVuSans-35"/>
       <use x="127.246094" xlink:href="#DejaVuSans-2e"/>
       <use x="159.033203" xlink:href="#DejaVuSans-30"/>
      </g>
     </g>
    </g>
   </g>
   <g id="patch_3">
    <path d="M 38.482813 228.14 
L 38.482813 10.7 
" style="fill:none;stroke:#000000;stroke-linecap:square;stroke-linejoin:miter;stroke-width:0.8;"/>
   </g>
   <g id="patch_4">
    <path d="M 373.282813 228.14 
L 373.282813 10.7 
" style="fill:none;stroke:#000000;stroke-linecap:square;stroke-linejoin:miter;stroke-width:0.8;"/>
   </g>
   <g id="patch_5">
    <path d="M 38.482812 228.14 
L 373.282812 228.14 
" style="fill:none;stroke:#000000;stroke-linecap:square;stroke-linejoin:miter;stroke-width:0.8;"/>
   </g>
   <g id="patch_6">
    <path d="M 38.482812 10.7 
L 373.282812 10.7 
" style="fill:none;stroke:#000000;stroke-linecap:square;stroke-linejoin:miter;stroke-width:0.8;"/>
   </g>
  </g>
 </g>
 <defs>
  <clipPath id="p794357a48a">
   <rect height="217.44" width="334.8" x="38.482813" y="10.7"/>
  </clipPath>
 </defs>
</svg>
